<?xml version="1.0" encoding="UTF-8" standalone="no"?><!DOCTYPE svg PUBLIC "-//W3C//DTD SVG 1.1//EN" "http://www.w3.org/Graphics/SVG/1.1/DTD/svg11.dtd"><svg width="1280px" height="800px" version="1.1" xmlns="http://www.w3.org/2000/svg" xmlns:xlink="http://www.w3.org/1999/xlink" xml:space="preserve" xmlns:serif="http://www.serif.com/" style="fill-rule:evenodd;clip-rule:evenodd;stroke-linejoin:round;stroke-miterlimit:1.41421;"><rect id="Final-Dial-" serif:id="Final Dial " x="0" y="0" width="1280" height="800" style="fill:none;"/><clipPath id="_clip1"><rect id="Final-Dial-1" serif:id="Final Dial " x="0" y="0" width="1280" height="800"/></clipPath><g clip-path="url(#_clip1)"><g id="Finished-Finished-Version" serif:id="Finished Finished Version" transform="matrix(-0.599231,-1.55505,-1.47498,0.568377,1702.97,1116.63)"><g transform="matrix(0.673943,0,0,0.673943,210.23,141.184)"><circle cx="622.5" cy="358.5" r="212.5" style="fill:url(#_Radial2);stroke:rgb(84,84,84);stroke-width:0.91px;"/></g><g transform="matrix(0.529262,0,0,0.529262,285.739,184.319)"><circle cx="650" cy="375" r="244" style="fill:rgb(107,107,107);"/></g><g transform="matrix(0.998264,-0.058896,0.058896,0.998264,-21.4518,37.7548)"><g transform="matrix(0.55188,3.06355e-17,0,0.55188,286.214,184.944)"><circle cx="622.5" cy="358.5" r="212.5" style="fill:url(#_Radial3);"/><circle cx="622.5" cy="358.5" r="212.5" style="fill:url(#_Radial4);"/><circle cx="622.5" cy="358.5" r="212.5" style="fill:url(#_Radial5);"/></g><g transform="matrix(0.55188,4.59532e-17,0,0.55188,219.643,357.139)"><circle cx="754.5" cy="219.5" r="8.5" style="fill:rgb(191,191,191);"/><circle cx="754.5" cy="219.5" r="8.5" style="fill:rgb(191,191,191);"/></g></g><g transform="matrix(-0.101545,0.60512,-0.60512,-0.101545,990.207,58.2222)"><clipPath id="_clip6"><path d="M608.333,775.433C611.326,775.587 614.321,775.699 617.317,775.761C620.182,775.82 623.047,775.833 625.912,775.808L626.364,775.804L626.559,794.691C625.921,794.698 625.283,794.703 624.645,794.706C621.591,794.718 618.538,794.689 615.486,794.612C612.771,794.543 610.057,794.435 607.345,794.296L607.079,794.281L608.082,775.42C608.166,775.424 608.249,775.429 608.333,775.433ZM665.422,791.745C662.32,792.182 659.212,792.575 656.097,792.916C652.798,793.278 649.493,793.582 646.183,793.837L646.04,793.848L644.618,775.013C645.253,774.965 645.889,774.914 646.524,774.862C649.032,774.653 651.537,774.415 654.039,774.14C656.673,773.851 659.303,773.523 661.929,773.161L662.365,773.101L662.785,773.042C663.664,779.276 664.543,785.51 665.422,791.745ZM571.897,771.128C574.915,771.685 577.942,772.197 580.977,772.656C583.737,773.074 586.504,773.448 589.276,773.786L589.715,773.838L589.876,773.858L587.653,792.615C581.224,791.853 574.821,790.875 568.455,789.7L568.366,789.684L571.822,771.114C571.847,771.119 571.872,771.124 571.897,771.128ZM703.585,783.761C700.058,784.743 696.513,785.662 692.952,786.514C690.242,787.163 687.523,787.771 684.796,788.345L684.637,788.379L680.773,769.89C681.39,769.761 682.007,769.629 682.623,769.496C684.747,769.035 686.866,768.553 688.978,768.044C692.173,767.274 695.354,766.446 698.52,765.564C700.209,771.63 701.897,777.695 703.585,783.761ZM536.639,762.175C539.507,763.105 542.388,763.992 545.284,764.829C547.914,765.59 550.555,766.31 553.206,766.995L553.626,767.103L553.984,767.194L549.315,785.496C546.209,784.704 543.114,783.865 540.035,782.974C536.942,782.079 533.864,781.131 530.801,780.138L530.586,780.068L536.437,762.109C536.504,762.131 536.572,762.153 536.639,762.175ZM740.371,770.845C737.726,771.972 735.066,773.064 732.39,774.115C729.017,775.44 725.619,776.702 722.2,777.904L715.935,760.085C716.582,759.858 717.228,759.628 717.874,759.396C718.545,759.154 719.216,758.91 719.886,758.664C722.027,757.874 724.158,757.061 726.279,756.221C728.521,755.332 730.751,754.412 732.97,753.467C735.437,759.26 737.904,765.052 740.371,770.845ZM503.315,748.914C505.623,750.005 507.942,751.071 510.277,752.102C513.138,753.365 516.021,754.578 518.923,755.746L519.271,755.886L512.243,773.418C511.558,773.143 510.874,772.866 510.191,772.588C507.102,771.322 504.034,770.009 500.988,768.643C498.778,767.651 496.583,766.629 494.396,765.587L494.375,765.577L502.552,748.55L502.548,748.548C502.803,748.67 503.059,748.792 503.315,748.914ZM775.167,753.22C773.345,754.301 771.508,755.358 769.663,756.398C765.84,758.551 761.97,760.619 758.056,762.602L749.519,745.754C749.91,745.555 750.3,745.356 750.691,745.157C751.194,744.898 751.696,744.638 752.198,744.378C754.452,743.202 756.693,742.001 758.915,740.767C761.134,739.535 763.334,738.269 765.521,736.98L765.526,736.977C768.74,742.391 771.953,747.806 775.167,753.22ZM470.821,730.746C472.475,731.818 474.136,732.876 475.81,733.915C479.27,736.061 482.776,738.132 486.326,740.125L477.081,756.596C473.291,754.468 469.547,752.257 465.853,749.965C464.066,748.857 462.293,747.727 460.528,746.584L460.389,746.493L470.706,730.671C470.744,730.696 470.783,730.721 470.821,730.746ZM807.343,731.239C803.72,734.078 800.031,736.83 796.281,739.498C794.815,740.541 793.338,741.568 791.855,742.587L791.602,742.759L780.955,727.158C781.263,726.947 781.571,726.735 781.879,726.524C784.19,724.926 786.482,723.302 788.746,721.639C791.009,719.977 793.244,718.279 795.459,716.554L795.693,716.371C799.576,721.327 803.459,726.283 807.343,731.239ZM441.803,709.11C444.156,711.106 446.535,713.07 448.949,714.991C451.145,716.739 453.369,718.45 455.614,720.134L455.707,720.203L444.416,735.345C444.137,735.137 443.859,734.928 443.581,734.72C441.192,732.915 438.824,731.082 436.486,729.211C434.15,727.34 431.845,725.432 429.563,723.496L429.178,723.168L441.439,708.8C441.56,708.904 441.682,709.007 441.803,709.11ZM836.4,705.286C833.922,707.801 831.405,710.278 828.842,712.707C826.692,714.744 824.51,716.747 822.303,718.723L809.702,704.652C810.106,704.291 810.509,703.929 810.912,703.566C811.327,703.189 811.742,702.812 812.156,702.435C813.809,700.919 815.447,699.389 817.065,697.837C819.053,695.93 821.011,693.992 822.945,692.03C827.43,696.449 831.915,700.867 836.4,705.286ZM415.275,683.361C416.969,685.23 418.682,687.082 420.423,688.907C422.88,691.485 425.387,694.013 427.938,696.497L414.762,710.031C412.043,707.383 409.371,704.688 406.752,701.942C404.895,699.994 403.067,698.019 401.26,696.024L401.227,695.988L415.261,683.346C415.266,683.351 415.27,683.356 415.275,683.361ZM861.88,675.776C859.124,679.426 856.279,683.01 853.357,686.529C852.21,687.91 851.049,689.279 849.88,690.641L849.618,690.945L835.324,678.598C835.588,678.292 835.851,677.985 836.115,677.678C837.935,675.545 839.73,673.39 841.489,671.206C843.25,669.02 844.974,666.807 846.672,664.572L846.806,664.394C851.831,668.188 856.855,671.982 861.88,675.776ZM392.796,655.023C394.401,657.329 396.032,659.615 397.702,661.875C399.536,664.358 401.415,666.808 403.326,669.232L403.444,669.381L388.647,681.12C388.416,680.828 388.186,680.536 387.955,680.244C386.108,677.886 384.289,675.507 382.509,673.098C380.728,670.687 378.987,668.247 377.275,665.786L377.038,665.444L392.576,654.704C392.649,654.81 392.723,654.916 392.796,655.023ZM883.315,643.231C881.294,646.78 879.203,650.288 877.04,653.753C875.767,655.791 874.467,657.811 873.148,659.82L873.118,659.866L857.358,649.454C857.673,648.977 857.985,648.498 858.297,648.02C859.368,646.366 860.426,644.705 861.465,643.03C863.334,640.017 865.145,636.968 866.9,633.886C872.371,637.001 877.843,640.116 883.315,643.231ZM374.072,623.895C375.372,626.403 376.702,628.895 378.074,631.365C379.567,634.053 381.107,636.715 382.685,639.354L366.471,649.044C365.1,646.75 363.755,644.441 362.443,642.112C360.566,638.781 358.756,635.412 357.007,632.012L373.803,623.372C373.893,623.546 373.983,623.721 374.072,623.895ZM900.341,608.152C898.561,612.533 896.673,616.87 894.685,621.159C893.939,622.767 893.178,624.368 892.406,625.963L875.404,617.734C875.637,617.254 875.868,616.774 876.099,616.293C876.342,615.782 876.585,615.27 876.828,614.757C877.791,612.703 878.736,610.64 879.653,608.564C880.743,606.093 881.796,603.606 882.816,601.106L882.841,601.044C888.674,603.413 894.507,605.783 900.341,608.152ZM359.3,589.92C360.215,592.471 361.163,595.011 362.15,597.535C363.238,600.318 364.373,603.082 365.549,605.829L365.716,606.217L365.999,606.873L348.661,614.368C347.479,611.632 346.332,608.881 345.229,606.112C343.933,602.858 342.698,599.58 341.515,596.282L341.497,596.231L359.286,589.882C359.291,589.894 359.295,589.907 359.3,589.92ZM912.628,571.149C910.998,577.42 909.151,583.632 907.116,589.783L907.09,589.862L889.167,583.9C889.401,583.199 889.63,582.496 889.858,581.793C890.651,579.334 891.413,576.865 892.139,574.385C892.907,571.759 893.635,569.121 894.328,566.473L894.348,566.396C900.442,567.98 906.535,569.565 912.628,571.149ZM349.344,555.072C349.959,557.903 350.613,560.724 351.314,563.535C352.011,566.333 352.754,569.12 353.537,571.897L353.654,572.312L353.704,572.485L335.539,577.664C333.756,571.411 332.183,565.098 330.813,558.742L349.278,554.762C349.3,554.866 349.322,554.969 349.344,555.072ZM919.961,532.868C919.537,536.256 919.06,539.637 918.522,543.009C918.08,545.781 917.597,548.545 917.079,551.304L916.992,551.762L916.923,552.122L898.37,548.581C898.502,547.892 898.631,547.203 898.758,546.514C898.889,545.797 899.018,545.079 899.145,544.36C899.523,542.199 899.878,540.033 900.207,537.864C900.536,535.686 900.839,533.504 901.118,531.319L901.174,530.88L901.218,530.526C907.466,531.307 913.713,532.087 919.961,532.868ZM343.978,518.974C344.224,521.923 344.512,524.868 344.848,527.808C345.183,530.731 345.566,533.648 345.99,536.559L346.025,536.793L327.338,539.546C327.234,538.843 327.134,538.14 327.035,537.436C326.71,535.103 326.408,532.766 326.137,530.425C325.741,527.015 325.405,523.598 325.125,520.176L343.951,518.637C343.96,518.749 343.969,518.862 343.978,518.974ZM922.256,494.196C922.269,497.25 922.239,500.303 922.162,503.355C922.077,506.707 921.934,510.056 921.74,513.403L921.737,513.451L902.882,512.33C902.927,511.574 902.968,510.817 903.006,510.061C903.126,507.667 903.219,505.272 903.28,502.876C903.352,500.013 903.38,497.15 903.368,494.286L903.367,494.064L922.255,493.96C922.255,494.039 922.256,494.118 922.256,494.196ZM343.341,482.117C343.305,482.867 343.273,483.617 343.243,484.367C343.214,485.116 343.187,485.865 343.163,486.614C343.097,488.718 343.053,490.823 343.032,492.928C343.009,495.342 343.019,497.756 343.055,500.17L343.059,500.387L324.173,500.701C324.161,499.981 324.152,499.262 324.145,498.542C324.121,495.808 324.13,493.074 324.178,490.34C324.231,487.301 324.331,484.263 324.474,481.227L324.475,481.205C330.763,481.509 337.052,481.813 343.341,482.117ZM919.549,455.252C919.968,458.371 920.343,461.495 920.667,464.624C921.005,467.903 921.288,471.187 921.52,474.475L902.679,475.806C902.628,475.087 902.575,474.367 902.519,473.648C902.461,472.909 902.401,472.169 902.338,471.43C902.146,469.218 901.933,467.009 901.691,464.802C901.45,462.606 901.181,460.412 900.89,458.222L900.831,457.785L900.81,457.628L919.526,455.082C919.534,455.139 919.541,455.196 919.549,455.252ZM347.444,445.82C347.325,446.478 347.21,447.136 347.096,447.794C346.972,448.514 346.851,449.235 346.732,449.956C346.377,452.125 346.045,454.298 345.74,456.475C345.434,458.661 345.155,460.851 344.899,463.043L344.848,463.482L344.801,463.903L326.033,461.77C326.387,458.66 326.785,455.556 327.234,452.458C327.682,449.365 328.181,446.281 328.724,443.203L328.806,442.743L328.853,442.481C335.05,443.594 341.247,444.707 347.444,445.82ZM911.771,416.925C912.58,419.901 913.347,422.889 914.065,425.888C914.785,428.9 915.457,431.924 916.085,434.956L916.179,435.412L916.268,435.847L897.761,439.623C897.616,438.913 897.469,438.204 897.32,437.496C897.169,436.786 897.016,436.076 896.861,435.368C896.331,432.964 895.773,430.566 895.182,428.176C894.662,426.075 894.115,423.981 893.548,421.892L893.537,421.853L911.757,416.872C911.762,416.889 911.766,416.907 911.771,416.925ZM356.248,410.385C356.038,411.045 355.829,411.706 355.623,412.368C355.41,413.054 355.199,413.74 354.991,414.426C354.325,416.629 353.684,418.839 353.072,421.058C352.458,423.283 351.874,425.516 351.314,427.756L351.263,427.96L332.932,423.406C333.099,422.735 333.268,422.064 333.439,421.393C334.09,418.858 334.77,416.331 335.486,413.814C336.359,410.743 337.283,407.687 338.253,404.645C344.252,406.558 350.25,408.472 356.248,410.385ZM899.092,380.115C900.325,383.06 901.515,386.023 902.655,389.005C903.798,391.997 904.891,395.007 905.939,398.033L906.01,398.238L888.153,404.394C887.945,403.789 887.734,403.186 887.522,402.583C886.666,400.16 885.78,397.748 884.859,395.35C883.838,392.692 882.775,390.051 881.675,387.425L881.638,387.336L899.049,380.013C899.063,380.047 899.077,380.081 899.092,380.115ZM369.615,376.425C369.355,376.974 369.099,377.524 368.843,378.074C368.606,378.589 368.369,379.104 368.133,379.62C367.31,381.43 366.503,383.247 365.716,385.073C364.589,387.684 363.509,390.315 362.463,392.96L362.374,393.184L344.799,386.265C345.053,385.619 345.31,384.975 345.568,384.331C346.815,381.233 348.11,378.155 349.459,375.099C350.437,372.882 351.446,370.68 352.475,368.486L352.538,368.352C358.23,371.043 363.923,373.734 369.615,376.425ZM881.702,345.26C882.761,347.083 883.807,348.913 884.83,350.756C886.941,354.557 888.97,358.404 890.912,362.295L874.012,370.73C873.834,370.374 873.655,370.018 873.476,369.662C873.22,369.158 872.964,368.654 872.707,368.15C871.543,365.889 870.356,363.64 869.135,361.409C867.916,359.182 866.663,356.973 865.387,354.778L865.326,354.674L881.626,345.131C881.652,345.174 881.677,345.217 881.702,345.26ZM387.314,344.479C387.116,344.786 386.92,345.093 386.724,345.4C386.422,345.875 386.121,346.351 385.821,346.827C384.475,348.976 383.151,351.138 381.861,353.32C380.568,355.505 379.309,357.709 378.074,359.926L377.948,360.152L361.422,351.007C361.614,350.66 361.808,350.313 362.001,349.966C363.474,347.341 364.979,344.735 366.527,342.153C368.073,339.575 369.661,337.024 371.28,334.492L371.43,334.258C376.725,337.665 382.019,341.072 387.314,344.479ZM860.091,313.173C862.101,315.785 864.075,318.424 866.001,321.098C867.754,323.531 869.467,325.993 871.15,328.475L871.259,328.637L855.594,339.19C855.405,338.911 855.216,338.632 855.027,338.353C853.443,336.032 851.831,333.73 850.182,331.455C848.534,329.182 846.849,326.937 845.138,324.712L844.891,324.393L859.827,312.831C859.915,312.945 860.003,313.059 860.091,313.173ZM409.02,315.091C408.714,315.454 408.409,315.818 408.104,316.182C407.745,316.613 407.386,317.044 407.029,317.476C405.424,319.426 403.841,321.392 402.286,323.382C400.731,325.373 399.206,327.386 397.701,329.416L397.697,329.422L382.488,318.221C382.851,317.729 383.216,317.24 383.582,316.75C385.02,314.834 386.475,312.93 387.955,311.047C390.116,308.298 392.326,305.588 394.58,302.916C399.393,306.974 404.207,311.033 409.02,315.091ZM834.626,284.215C836.526,286.121 838.406,288.046 840.257,289.999C842.682,292.558 845.059,295.161 847.395,297.801L833.249,310.317C832.914,309.938 832.577,309.559 832.24,309.18C831.866,308.763 831.491,308.346 831.116,307.929C829.422,306.06 827.709,304.209 825.968,302.383C824.237,300.567 822.478,298.776 820.701,297.004L834.038,283.629C834.234,283.824 834.43,284.02 834.626,284.215ZM434.328,288.771C433.883,289.177 433.44,289.586 432.997,289.994C432.587,290.376 432.176,290.758 431.767,291.14C430.337,292.483 428.917,293.837 427.513,295.207C425.392,297.279 423.304,299.385 421.248,301.522L407.636,288.427C410.45,285.501 413.322,282.632 416.251,279.822C417.977,278.166 419.726,276.534 421.489,274.917L421.602,274.813C425.844,279.466 430.086,284.118 434.328,288.771ZM804.956,258.202C807.329,260.027 809.68,261.881 812,263.773C814.551,265.853 817.064,267.978 819.548,270.136L819.77,270.331L807.339,284.551C807.061,284.308 806.782,284.066 806.503,283.824C804.381,281.991 802.237,280.183 800.063,278.411C797.889,276.638 795.686,274.901 793.462,273.19L793.199,272.989L804.671,257.984C804.766,258.056 804.861,258.129 804.956,258.202ZM462.843,265.926C462.477,266.182 462.112,266.439 461.747,266.697C461.288,267.022 460.83,267.347 460.373,267.674C458.32,269.148 456.283,270.643 454.269,272.169C452.255,273.694 450.265,275.249 448.291,276.824L448.227,276.876L436.399,262.149C436.662,261.939 436.925,261.729 437.188,261.519C439.534,259.658 441.902,257.825 444.3,256.032C446.7,254.236 449.129,252.481 451.579,250.754L452.01,250.453C455.621,255.61 459.232,260.768 462.843,265.926ZM772.8,236.685C775.4,238.197 777.982,239.739 780.538,241.325C783.321,243.052 786.073,244.827 788.801,246.64L778.342,262.369C777.889,262.068 777.436,261.768 776.983,261.468C776.512,261.159 776.041,260.851 775.57,260.544C773.68,259.32 771.779,258.113 769.862,256.932C767.53,255.495 765.176,254.094 762.804,252.724L772.248,236.366C772.432,236.473 772.616,236.579 772.8,236.685ZM494.07,246.977C493.61,247.217 493.15,247.458 492.691,247.699C492.191,247.964 491.693,248.229 491.194,248.495C489.205,249.565 487.226,250.652 485.262,251.766C482.866,253.125 480.492,254.521 478.137,255.948L468.35,239.794C471.375,237.961 474.429,236.177 477.516,234.451C480.099,233.006 482.704,231.603 485.328,230.233C488.242,235.814 491.156,241.395 494.07,246.977ZM737.464,219.223C740.406,220.444 743.33,221.708 746.232,223.021C749.188,224.359 752.12,225.746 755.032,227.178L746.699,244.129C746.258,243.912 745.816,243.696 745.374,243.48C744.864,243.233 744.354,242.987 743.843,242.742C742.052,241.888 740.254,241.048 738.446,240.23C735.858,239.059 733.251,237.93 730.629,236.837L730.235,236.673L730.052,236.597L737.267,219.142C737.333,219.169 737.398,219.196 737.464,219.223ZM527.478,232.27C526.885,232.486 526.293,232.704 525.702,232.923C525.033,233.172 524.366,233.424 523.699,233.677C521.57,234.489 519.449,235.324 517.34,236.186C515.055,237.12 512.784,238.086 510.525,239.079L502.924,221.788C506.029,220.423 509.155,219.108 512.305,217.848C515.132,216.717 517.977,215.632 520.837,214.587L521.02,214.52C523.172,220.437 525.325,226.354 527.478,232.27ZM700.578,206.708C703.547,207.505 706.505,208.343 709.448,209.23C712.381,210.113 715.299,211.044 718.204,212.015L718.639,212.161L719.002,212.284L712.957,230.179C712.298,229.956 711.638,229.735 710.978,229.517C710.297,229.293 709.616,229.071 708.934,228.851C706.747,228.15 704.552,227.472 702.349,226.824C700.14,226.173 697.921,225.552 695.697,224.955L695.468,224.894L700.336,206.644C700.416,206.665 700.497,206.687 700.578,206.708ZM562.526,222.066C561.807,222.224 561.089,222.387 560.372,222.551C559.666,222.713 558.961,222.878 558.257,223.045C556.008,223.581 553.766,224.142 551.531,224.733C549.303,225.321 547.083,225.939 544.87,226.581L544.843,226.589L539.552,208.457C540.155,208.281 540.759,208.108 541.364,207.936C544.327,207.096 547.302,206.298 550.289,205.548C552.988,204.871 555.697,204.234 558.413,203.631L558.46,203.62C559.815,209.769 561.171,215.917 562.526,222.066ZM662.188,199.106C665.294,199.513 668.393,199.965 671.485,200.468C674.56,200.968 677.628,201.519 680.687,202.113L681.145,202.203L681.335,202.241L677.674,220.771C677.045,220.646 676.414,220.525 675.784,220.404C675.068,220.269 674.351,220.135 673.634,220.004C671.333,219.587 669.028,219.195 666.718,218.835C664.397,218.472 662.073,218.141 659.744,217.835L659.653,217.823L662.082,199.092C662.117,199.097 662.153,199.101 662.188,199.106ZM598.621,216.534C598.003,216.587 597.384,216.644 596.766,216.701C596.029,216.771 595.293,216.843 594.557,216.917C592.209,217.158 589.864,217.424 587.522,217.722C585.191,218.019 582.865,218.347 580.542,218.7L580.492,218.708L577.621,200.039C578.261,199.941 578.902,199.846 579.543,199.751C582.495,199.321 585.452,198.93 588.415,198.586C591.237,198.259 594.063,197.974 596.893,197.725L596.993,197.716C597.536,203.989 598.078,210.261 598.621,216.534ZM623.679,196.581C626.728,196.589 629.778,196.637 632.826,196.734C636.013,196.835 639.199,196.989 642.382,197.188L642.676,197.207L641.465,216.056C640.777,216.012 640.088,215.971 639.4,215.931C635.81,215.729 632.218,215.589 628.623,215.521C624.855,215.449 621.085,215.455 617.317,215.53L616.866,215.539L616.462,196.656C617.098,196.642 617.735,196.63 618.372,196.619C619.657,196.6 620.943,196.588 622.229,196.583L622.712,196.581L623.188,196.581L623.196,206.025L623.203,196.581C623.362,196.581 623.52,196.581 623.679,196.581Z" clip-rule="nonzero"/></clipPath><g clip-path="url(#_clip6)"><circle cx="616" cy="488" r="322" style="fill:url(#_Radial7);"/></g></g></g></g><g id="Create-Your-Version-Here" serif:id="Create Your Version Here" transform="matrix(1,0,0,1,-641.411,800)"><rect x="1330" y="0" width="1280" height="800" style="fill:none;"/></g><defs><radialGradient id="_Radial2" cx="0" cy="0" r="1" gradientUnits="userSpaceOnUse" gradientTransform="matrix(-77.7402,-212.693,-201.741,81.9602,623.095,353.385)"><stop offset="0" style="stop-color:rgb(186,186,185);stop-opacity:1"/><stop offset="0.18" style="stop-color:rgb(232,230,230);stop-opacity:1"/><stop offset="0.38" style="stop-color:rgb(128,126,127);stop-opacity:1"/><stop offset="0.5" style="stop-color:rgb(221,221,220);stop-opacity:1"/><stop offset="0.62" style="stop-color:rgb(228,230,228);stop-opacity:1"/><stop offset="0.72" style="stop-color:rgb(207,207,207);stop-opacity:1"/><stop offset="0.79" style="stop-color:rgb(235,235,235);stop-opacity:1"/><stop offset="0.97" style="stop-color:rgb(125,125,125);stop-opacity:1"/><stop offset="1" style="stop-color:rgb(187,187,185);stop-opacity:1"/></radialGradient><radialGradient id="_Radial3" cx="0" cy="0" r="1" gradientUnits="userSpaceOnUse" gradientTransform="matrix(-65.068,-216.867,-206.185,69.9249,623.095,353.385)"><stop offset="0" style="stop-color:rgb(186,186,185);stop-opacity:1"/><stop offset="0.18" style="stop-color:rgb(232,230,230);stop-opacity:1"/><stop offset="0.38" style="stop-color:rgb(128,126,127);stop-opacity:1"/><stop offset="0.5" style="stop-color:rgb(221,221,220);stop-opacity:1"/><stop offset="0.62" style="stop-color:rgb(228,230,228);stop-opacity:1"/><stop offset="0.75" style="stop-color:rgb(164,164,163);stop-opacity:1"/><stop offset="0.86" style="stop-color:rgb(125,125,125);stop-opacity:1"/><stop offset="1" style="stop-color:rgb(187,187,185);stop-opacity:1"/></radialGradient><radialGradient id="_Radial4" cx="0" cy="0" r="1" gradientUnits="userSpaceOnUse" gradientTransform="matrix(-65.068,-216.867,-206.185,69.9249,623.095,353.385)"><stop offset="0" style="stop-color:rgb(186,186,185);stop-opacity:1"/><stop offset="0.18" style="stop-color:rgb(232,230,230);stop-opacity:1"/><stop offset="0.38" style="stop-color:rgb(128,126,127);stop-opacity:1"/><stop offset="0.5" style="stop-color:rgb(221,221,220);stop-opacity:1"/><stop offset="0.62" style="stop-color:rgb(228,230,228);stop-opacity:1"/><stop offset="0.75" style="stop-color:rgb(164,164,163);stop-opacity:1"/><stop offset="0.86" style="stop-color:rgb(125,125,125);stop-opacity:1"/><stop offset="1" style="stop-color:rgb(187,187,185);stop-opacity:1"/></radialGradient><radialGradient id="_Radial5" cx="0" cy="0" r="1" gradientUnits="userSpaceOnUse" gradientTransform="matrix(-65.068,-216.867,-206.185,69.9249,623.095,353.385)"><stop offset="0" style="stop-color:rgb(186,186,185);stop-opacity:1"/><stop offset="0.18" style="stop-color:rgb(232,230,230);stop-opacity:1"/><stop offset="0.38" style="stop-color:rgb(128,126,127);stop-opacity:1"/><stop offset="0.5" style="stop-color:rgb(221,221,220);stop-opacity:1"/><stop offset="0.62" style="stop-color:rgb(228,230,228);stop-opacity:1"/><stop offset="0.75" style="stop-color:rgb(164,164,163);stop-opacity:1"/><stop offset="0.86" style="stop-color:rgb(125,125,125);stop-opacity:1"/><stop offset="1" style="stop-color:rgb(187,187,185);stop-opacity:1"/></radialGradient><radialGradient id="_Radial7" cx="0" cy="0" r="1" gradientUnits="userSpaceOnUse" gradientTransform="matrix(-231.604,131.589,134.353,218.078,624.032,488.447)"><stop offset="0" style="stop-color:rgb(0,255,255);stop-opacity:1"/><stop offset="0.8" style="stop-color:rgb(147,0,255);stop-opacity:1"/><stop offset="1" style="stop-color:rgb(143,0,255);stop-opacity:1"/></radialGradient></defs></svg>