<?xml version="1.0" encoding="UTF-8" standalone="no"?>
<!DOCTYPE svg PUBLIC "-//W3C//DTD SVG 1.1//EN" "http://www.w3.org/Graphics/SVG/1.1/DTD/svg11.dtd">
<svg width="100%" height="100%" viewBox="0 0 7 8" version="1.1" xmlns="http://www.w3.org/2000/svg" xmlns:xlink="http://www.w3.org/1999/xlink" xml:space="preserve" xmlns:serif="http://www.serif.com/" style="fill-rule:evenodd;clip-rule:evenodd;stroke-linejoin:round;stroke-miterlimit:1.41421;">
    <g transform="matrix(1,0,0,1,-47.3817,-47.1354)">
        <g transform="matrix(4.16667,0,0,4.16667,0,0)">
            <g transform="matrix(1,0,0,1,-1.76374,1.95743)">
                <g transform="matrix(1,0,0,1,2.50976,-3.17057)">
                    <path d="M11.084,13.035C11.146,13.035 11.202,13.05 11.256,13.069C11.29,13.081 11.323,13.094 11.357,13.102C11.419,13.118 11.479,13.112 11.539,13.089C11.581,13.073 11.623,13.056 11.668,13.046C11.8,13.016 11.919,13.045 12.027,13.127C12.056,13.15 12.084,13.175 12.107,13.204C12.116,13.214 12.116,13.217 12.103,13.225C11.992,13.293 11.927,13.392 11.916,13.521C11.905,13.642 11.942,13.748 12.026,13.836C12.062,13.875 12.106,13.904 12.155,13.925C12.168,13.93 12.169,13.932 12.164,13.946C12.109,14.071 12.037,14.188 11.946,14.291C11.916,14.327 11.88,14.358 11.839,14.381C11.774,14.417 11.707,14.418 11.639,14.389C11.611,14.376 11.584,14.364 11.554,14.352C11.46,14.325 11.37,14.327 11.279,14.365C11.254,14.374 11.231,14.384 11.208,14.394C11.12,14.427 11.041,14.407 10.969,14.35C10.924,14.316 10.889,14.274 10.856,14.229C10.78,14.126 10.72,14.015 10.68,13.894C10.651,13.807 10.633,13.718 10.627,13.627C10.622,13.526 10.629,13.427 10.67,13.334C10.734,13.19 10.84,13.09 10.994,13.046C11.025,13.039 11.055,13.035 11.084,13.035Z" style="fill:url(#_Linear1);"/>
                </g>
                <g transform="matrix(1,0,0,1,2.61841,-3.25928)">
                    <path d="M11.74,12.655C11.74,12.741 11.713,12.813 11.668,12.879C11.62,12.954 11.551,13.005 11.466,13.033C11.441,13.041 11.414,13.046 11.386,13.046C11.375,13.046 11.371,13.041 11.37,13.031C11.363,12.967 11.377,12.91 11.404,12.855C11.456,12.744 11.542,12.671 11.656,12.63C11.678,12.623 11.702,12.619 11.726,12.615C11.736,12.612 11.739,12.62 11.739,12.626C11.74,12.638 11.742,12.65 11.74,12.655Z" style="fill:url(#_Linear2);"/>
                </g>
            </g>
        </g>
    </g>
    <defs>
        <linearGradient id="_Linear1" x1="0" y1="0" x2="1" y2="0" gradientUnits="userSpaceOnUse" gradientTransform="matrix(1.5412,0,0,1.37548,10.6256,13.7222)"><stop offset="0" style="stop-color:rgb(229,229,228);stop-opacity:1"/><stop offset="0.03" style="stop-color:rgb(153,153,153);stop-opacity:1"/><stop offset="0.08" style="stop-color:rgb(51,51,51);stop-opacity:1"/><stop offset="0.14" style="stop-color:rgb(103,103,103);stop-opacity:1"/><stop offset="0.29" style="stop-color:rgb(217,209,209);stop-opacity:1"/><stop offset="0.33" style="stop-color:white;stop-opacity:1"/><stop offset="0.51" style="stop-color:rgb(57,56,56);stop-opacity:1"/><stop offset="0.6" style="stop-color:rgb(77,76,76);stop-opacity:1"/><stop offset="0.65" style="stop-color:rgb(144,144,146);stop-opacity:1"/><stop offset="0.77" style="stop-color:rgb(144,144,146);stop-opacity:1"/><stop offset="0.82" style="stop-color:white;stop-opacity:1"/><stop offset="0.89" style="stop-color:rgb(144,144,146);stop-opacity:1"/><stop offset="0.98" style="stop-color:rgb(229,229,228);stop-opacity:1"/><stop offset="1" style="stop-color:rgb(229,229,228);stop-opacity:1"/></linearGradient>
        <linearGradient id="_Linear2" x1="0" y1="0" x2="1" y2="0" gradientUnits="userSpaceOnUse" gradientTransform="matrix(0.372646,0,0,0.431652,11.3682,12.8302)"><stop offset="0" style="stop-color:rgb(229,229,228);stop-opacity:1"/><stop offset="0.03" style="stop-color:rgb(153,153,153);stop-opacity:1"/><stop offset="0.08" style="stop-color:rgb(51,51,51);stop-opacity:1"/><stop offset="0.14" style="stop-color:rgb(103,103,103);stop-opacity:1"/><stop offset="0.29" style="stop-color:rgb(217,209,209);stop-opacity:1"/><stop offset="0.33" style="stop-color:white;stop-opacity:1"/><stop offset="0.51" style="stop-color:rgb(57,56,56);stop-opacity:1"/><stop offset="0.6" style="stop-color:rgb(77,76,76);stop-opacity:1"/><stop offset="0.65" style="stop-color:rgb(144,144,146);stop-opacity:1"/><stop offset="0.77" style="stop-color:rgb(144,144,146);stop-opacity:1"/><stop offset="0.82" style="stop-color:white;stop-opacity:1"/><stop offset="0.89" style="stop-color:rgb(144,144,146);stop-opacity:1"/><stop offset="0.98" style="stop-color:rgb(229,229,228);stop-opacity:1"/><stop offset="1" style="stop-color:rgb(229,229,228);stop-opacity:1"/></linearGradient>
    </defs>
</svg>
