<?xml version="1.0" encoding="UTF-8" standalone="no"?>
<!DOCTYPE svg PUBLIC "-//W3C//DTD SVG 1.1//EN" "http://www.w3.org/Graphics/SVG/1.1/DTD/svg11.dtd">
<svg width="100%" height="100%" viewBox="0 0 40 32" version="1.1" xmlns="http://www.w3.org/2000/svg" xmlns:xlink="http://www.w3.org/1999/xlink" xml:space="preserve" xmlns:serif="http://www.serif.com/" style="fill-rule:evenodd;clip-rule:evenodd;stroke-linejoin:round;stroke-miterlimit:1.41421;">
    <g transform="matrix(1,0,0,1,-61.42,-41.711)">
        <g transform="matrix(4.16667,0,0,4.16667,0,0)">
            <g transform="matrix(2.71446,0,0,2.15503,-2.70345,-34.4212)">
                <g transform="matrix(1,0,0,1,4.18961,8.98446)">
                    <path d="M5.666,13.381C5.666,14.316 4.908,15.075 3.973,15.075C3.039,15.075 2.281,14.316 2.281,13.381C2.281,12.446 3.039,11.689 3.973,11.689C4.908,11.689 5.666,12.446 5.666,13.381Z" style="fill:url(#_Radial1);fill-rule:nonzero;stroke:rgb(229,229,229);stroke-width:0.1px;"/>
                </g>
                <g transform="matrix(1,0,0,1,4.18961,8.98446)">
                    <path d="M4.113,14.199C4.067,14.207 4.022,14.209 3.998,14.209C3.821,14.208 3.677,14.169 3.545,14.089C3.528,14.079 3.513,14.076 3.493,14.082C3.405,14.106 3.314,14.128 3.225,14.152C3.207,14.157 3.205,14.154 3.209,14.136C3.233,14.051 3.255,13.967 3.28,13.882C3.287,13.859 3.284,13.842 3.271,13.821C3.087,13.526 3.095,13.16 3.3,12.886C3.513,12.603 3.802,12.487 4.15,12.561C4.491,12.632 4.708,12.854 4.789,13.193C4.898,13.659 4.583,14.121 4.113,14.199ZM4.952,13.145C4.842,12.688 4.449,12.374 3.972,12.37C3.909,12.371 3.843,12.376 3.779,12.389C3.115,12.525 2.77,13.26 3.094,13.855C3.102,13.872 3.103,13.883 3.099,13.9C3.055,14.057 3.013,14.213 2.97,14.37C2.963,14.396 2.963,14.396 2.989,14.389C3.152,14.347 3.314,14.304 3.476,14.261C3.49,14.257 3.5,14.259 3.512,14.264C3.722,14.373 3.942,14.403 4.173,14.359C4.724,14.252 5.084,13.691 4.952,13.145Z" style="fill:url(#_Radial2);"/>
                </g>
                <g transform="matrix(1,0,0,1,4.18961,8.98446)">
                    <path d="M4.235,13.856C4.199,13.858 4.165,13.85 4.131,13.839C3.9,13.774 3.727,13.63 3.588,13.44C3.536,13.369 3.487,13.293 3.471,13.205C3.451,13.099 3.482,13.007 3.562,12.933C3.586,12.911 3.664,12.901 3.694,12.915C3.706,12.92 3.714,12.931 3.718,12.942C3.748,13.011 3.776,13.08 3.805,13.148C3.81,13.163 3.807,13.175 3.801,13.189C3.787,13.22 3.763,13.246 3.74,13.272C3.722,13.29 3.72,13.307 3.734,13.33C3.816,13.464 3.928,13.563 4.076,13.623C4.097,13.631 4.114,13.629 4.128,13.61C4.154,13.579 4.179,13.549 4.202,13.517C4.219,13.496 4.237,13.492 4.259,13.502C4.308,13.525 4.357,13.548 4.406,13.571C4.416,13.576 4.427,13.582 4.438,13.586C4.488,13.611 4.487,13.612 4.482,13.665C4.474,13.773 4.394,13.825 4.299,13.851C4.28,13.857 4.257,13.857 4.235,13.856Z" style="fill:url(#_Radial3);"/>
                </g>
            </g>
        </g>
    </g>
    <defs>
        <radialGradient id="_Radial1" cx="0" cy="0" r="1" gradientUnits="userSpaceOnUse" gradientTransform="matrix(3.38501,0,0,4.26375,2.281,13.382)"><stop offset="0" style="stop-color:rgb(102,102,134);stop-opacity:1"/><stop offset="0" style="stop-color:rgb(102,102,134);stop-opacity:1"/><stop offset="0.03" style="stop-color:rgb(101,102,139);stop-opacity:1"/><stop offset="0.07" style="stop-color:rgb(125,126,158);stop-opacity:1"/><stop offset="0.14" style="stop-color:rgb(195,196,224);stop-opacity:1"/><stop offset="0.14" style="stop-color:rgb(198,200,226);stop-opacity:1"/><stop offset="0.25" style="stop-color:rgb(180,182,214);stop-opacity:1"/><stop offset="0.27" style="stop-color:rgb(147,147,179);stop-opacity:1"/><stop offset="0.32" style="stop-color:rgb(109,109,141);stop-opacity:1"/><stop offset="0.44" style="stop-color:rgb(101,101,133);stop-opacity:1"/><stop offset="0.45" style="stop-color:rgb(101,101,133);stop-opacity:1"/><stop offset="0.47" style="stop-color:rgb(101,101,133);stop-opacity:1"/><stop offset="0.54" style="stop-color:rgb(101,101,133);stop-opacity:1"/><stop offset="0.64" style="stop-color:rgb(160,164,201);stop-opacity:1"/><stop offset="0.67" style="stop-color:rgb(202,205,230);stop-opacity:1"/><stop offset="0.68" style="stop-color:rgb(210,212,234);stop-opacity:1"/><stop offset="0.82" style="stop-color:rgb(174,178,216);stop-opacity:1"/><stop offset="0.84" style="stop-color:rgb(145,149,185);stop-opacity:1"/><stop offset="0.9" style="stop-color:rgb(99,103,129);stop-opacity:1"/><stop offset="0.98" style="stop-color:rgb(99,103,129);stop-opacity:1"/><stop offset="0.99" style="stop-color:rgb(100,100,136);stop-opacity:1"/><stop offset="1" style="stop-color:rgb(103,107,126);stop-opacity:1"/></radialGradient>
        <radialGradient id="_Radial2" cx="0" cy="0" r="1" gradientUnits="userSpaceOnUse" gradientTransform="matrix(2.01331,0,0,2.53596,2.96605,13.3815)"><stop offset="0" style="stop-color:rgb(102,102,134);stop-opacity:1"/><stop offset="0" style="stop-color:rgb(102,102,134);stop-opacity:1"/><stop offset="0.03" style="stop-color:rgb(101,102,139);stop-opacity:1"/><stop offset="0.07" style="stop-color:rgb(125,126,158);stop-opacity:1"/><stop offset="0.14" style="stop-color:rgb(195,196,224);stop-opacity:1"/><stop offset="0.14" style="stop-color:rgb(198,200,226);stop-opacity:1"/><stop offset="0.25" style="stop-color:rgb(180,182,214);stop-opacity:1"/><stop offset="0.27" style="stop-color:rgb(147,147,179);stop-opacity:1"/><stop offset="0.32" style="stop-color:rgb(109,109,141);stop-opacity:1"/><stop offset="0.38" style="stop-color:rgb(212,219,213);stop-opacity:1"/><stop offset="0.4" style="stop-color:rgb(159,162,175);stop-opacity:1"/><stop offset="0.43" style="stop-color:rgb(116,117,144);stop-opacity:1"/><stop offset="0.54" style="stop-color:rgb(101,101,133);stop-opacity:1"/><stop offset="0.64" style="stop-color:rgb(160,164,201);stop-opacity:1"/><stop offset="0.67" style="stop-color:rgb(202,205,230);stop-opacity:1"/><stop offset="0.68" style="stop-color:rgb(210,212,234);stop-opacity:1"/><stop offset="0.82" style="stop-color:rgb(174,178,216);stop-opacity:1"/><stop offset="0.84" style="stop-color:rgb(145,149,185);stop-opacity:1"/><stop offset="0.9" style="stop-color:rgb(99,103,129);stop-opacity:1"/><stop offset="0.98" style="stop-color:rgb(99,103,129);stop-opacity:1"/><stop offset="0.99" style="stop-color:rgb(100,100,136);stop-opacity:1"/><stop offset="1" style="stop-color:rgb(103,107,126);stop-opacity:1"/></radialGradient>
        <radialGradient id="_Radial3" cx="0" cy="0" r="1" gradientUnits="userSpaceOnUse" gradientTransform="matrix(1.01917,0,0,1.28374,3.46511,13.3825)"><stop offset="0" style="stop-color:rgb(103,107,126);stop-opacity:1"/><stop offset="0.01" style="stop-color:rgb(100,100,136);stop-opacity:1"/><stop offset="0.02" style="stop-color:rgb(99,103,129);stop-opacity:1"/><stop offset="0.1" style="stop-color:rgb(99,103,129);stop-opacity:1"/><stop offset="0.16" style="stop-color:rgb(145,149,185);stop-opacity:1"/><stop offset="0.18" style="stop-color:rgb(174,178,216);stop-opacity:1"/><stop offset="0.32" style="stop-color:rgb(210,212,234);stop-opacity:1"/><stop offset="0.33" style="stop-color:rgb(202,205,230);stop-opacity:1"/><stop offset="0.36" style="stop-color:rgb(160,164,201);stop-opacity:1"/><stop offset="0.46" style="stop-color:rgb(101,101,133);stop-opacity:1"/><stop offset="0.53" style="stop-color:rgb(101,101,133);stop-opacity:1"/><stop offset="0.55" style="stop-color:rgb(101,101,133);stop-opacity:1"/><stop offset="0.56" style="stop-color:rgb(101,101,133);stop-opacity:1"/><stop offset="0.68" style="stop-color:rgb(109,109,141);stop-opacity:1"/><stop offset="0.73" style="stop-color:rgb(147,147,179);stop-opacity:1"/><stop offset="0.75" style="stop-color:rgb(180,182,214);stop-opacity:1"/><stop offset="0.86" style="stop-color:rgb(198,200,226);stop-opacity:1"/><stop offset="0.86" style="stop-color:rgb(195,196,224);stop-opacity:1"/><stop offset="0.93" style="stop-color:rgb(125,126,158);stop-opacity:1"/><stop offset="0.97" style="stop-color:rgb(101,102,139);stop-opacity:1"/><stop offset="1" style="stop-color:rgb(102,102,134);stop-opacity:1"/><stop offset="1" style="stop-color:rgb(102,102,134);stop-opacity:1"/></radialGradient>
    </defs>
</svg>
