<?xml version="1.0" encoding="UTF-8" standalone="no"?>
<!DOCTYPE svg PUBLIC "-//W3C//DTD SVG 1.1//EN" "http://www.w3.org/Graphics/SVG/1.1/DTD/svg11.dtd">
<svg width="100%" height="100%" viewBox="0 0 11 11" version="1.1" xmlns="http://www.w3.org/2000/svg" xmlns:xlink="http://www.w3.org/1999/xlink" xml:space="preserve" xmlns:serif="http://www.serif.com/" style="fill-rule:evenodd;clip-rule:evenodd;stroke-linejoin:round;stroke-miterlimit:1.41421;">
    <g transform="matrix(1,0,0,1,-65.8108,-47.9949)">
        <g transform="matrix(4.16667,0,0,4.16667,0,0)">
            <g transform="matrix(1,0,0,1,-0.581001,-9.33973)">
                <g>
                    <g>
                        <g transform="matrix(1,0,0,1,10.6176,3.68051)">
                            <path d="M8.286,18.443C8.286,19.14 7.72,19.707 7.022,19.707C6.325,19.707 5.758,19.14 5.758,18.443C5.758,17.745 6.325,17.178 7.022,17.178C7.72,17.178 8.286,17.745 8.286,18.443Z" style="fill:url(#_Linear1);fill-rule:nonzero;"/>
                        </g>
                        <g transform="matrix(1,0,0,1,10.6176,3.68051)">
                            <path d="M7.164,17.75L7.165,17.751L7.164,17.75ZM7.16,17.749L7.16,17.75L7.16,17.749ZM7.774,18.739C7.772,18.737 7.773,18.735 7.773,18.731C7.773,18.73 7.773,18.729 7.773,18.728C7.773,18.726 7.773,18.723 7.772,18.721L7.772,18.719C7.768,18.665 7.753,18.613 7.727,18.565C7.726,18.563 7.725,18.562 7.723,18.562C7.722,18.558 7.721,18.555 7.72,18.554C7.719,18.552 7.719,18.55 7.72,18.548C7.721,18.541 7.723,18.534 7.724,18.527C7.726,18.525 7.724,18.523 7.726,18.521C7.727,18.519 7.725,18.517 7.727,18.516C7.728,18.514 7.726,18.512 7.728,18.51L7.728,18.509C7.728,18.504 7.728,18.5 7.73,18.496L7.73,18.495C7.731,18.493 7.729,18.491 7.73,18.486L7.731,18.486C7.732,18.484 7.73,18.48 7.732,18.477C7.733,18.465 7.733,18.45 7.733,18.436C7.733,18.435 7.733,18.434 7.733,18.433C7.734,18.415 7.733,18.396 7.731,18.377C7.73,18.364 7.729,18.352 7.726,18.338L7.726,18.337C7.724,18.336 7.726,18.333 7.724,18.332C7.723,18.331 7.724,18.329 7.724,18.327C7.722,18.326 7.724,18.324 7.723,18.32C7.721,18.313 7.719,18.304 7.717,18.294C7.713,18.281 7.709,18.265 7.706,18.248C7.7,18.232 7.693,18.213 7.686,18.196C7.682,18.185 7.677,18.174 7.672,18.164C7.668,18.154 7.666,18.146 7.662,18.138C7.642,18.101 7.62,18.066 7.595,18.031C7.588,18.022 7.582,18.011 7.573,18.003C7.562,17.988 7.549,17.974 7.536,17.959C7.536,17.957 7.534,17.957 7.532,17.956C7.529,17.953 7.525,17.949 7.521,17.945C7.517,17.941 7.513,17.936 7.509,17.932C7.508,17.932 7.507,17.93 7.505,17.929C7.49,17.915 7.474,17.902 7.458,17.888C7.449,17.881 7.439,17.874 7.428,17.867C7.427,17.866 7.426,17.865 7.426,17.863C7.363,17.819 7.295,17.788 7.222,17.764C7.205,17.76 7.187,17.754 7.168,17.751L7.167,17.751C7.166,17.75 7.166,17.75 7.164,17.75C7.162,17.749 7.162,17.749 7.16,17.749L7.159,17.749C7.157,17.748 7.156,17.748 7.154,17.748C7.155,17.748 7.155,17.749 7.155,17.749C7.155,17.749 7.155,17.748 7.154,17.748L7.153,17.748C7.147,17.747 7.14,17.746 7.133,17.745L7.132,17.745C7.13,17.745 7.129,17.745 7.127,17.745L7.126,17.745L7.125,17.744C7.125,17.743 7.123,17.743 7.121,17.743L7.12,17.743L7.119,17.743C7.118,17.743 7.115,17.743 7.114,17.743L7.113,17.743C7.11,17.741 7.108,17.741 7.106,17.741L7.105,17.741C7.102,17.741 7.1,17.741 7.098,17.741C7.097,17.741 7.097,17.741 7.096,17.741C7.093,17.739 7.091,17.739 7.089,17.739C7.088,17.739 7.087,17.739 7.087,17.739C7.087,17.739 7.086,17.739 7.085,17.739C7.083,17.739 7.081,17.739 7.078,17.739L7.077,17.739L7.075,17.739C7.071,17.738 7.068,17.738 7.065,17.738C7.064,17.738 7.062,17.738 7.062,17.738C7.061,17.737 7.061,17.737 7.06,17.737C7.055,17.737 7.049,17.737 7.044,17.737C7.03,17.736 7.014,17.736 7,17.737C6.988,17.737 6.975,17.737 6.962,17.739L6.961,17.739C6.958,17.739 6.956,17.739 6.953,17.739L6.952,17.739C6.951,17.739 6.951,17.739 6.95,17.739C6.947,17.739 6.944,17.739 6.942,17.741C6.941,17.741 6.941,17.741 6.94,17.741C6.938,17.741 6.936,17.741 6.934,17.741C6.933,17.741 6.933,17.741 6.932,17.741C6.93,17.741 6.927,17.741 6.925,17.743L6.924,17.743L6.923,17.743C6.916,17.743 6.91,17.744 6.904,17.745C6.894,17.748 6.886,17.744 6.878,17.739C6.825,17.713 6.77,17.697 6.711,17.693L6.646,17.693C6.635,17.693 6.625,17.694 6.614,17.697C6.57,17.706 6.528,17.72 6.489,17.743C6.457,17.761 6.428,17.783 6.402,17.808C6.391,17.819 6.381,17.831 6.371,17.84C6.351,17.865 6.333,17.891 6.319,17.919C6.306,17.945 6.295,17.971 6.287,17.998C6.278,18.029 6.271,18.062 6.271,18.094L6.271,18.149L6.272,18.149C6.274,18.189 6.282,18.225 6.295,18.263C6.301,18.285 6.31,18.304 6.321,18.323C6.323,18.328 6.322,18.332 6.322,18.336C6.319,18.35 6.317,18.363 6.317,18.377C6.317,18.378 6.316,18.38 6.316,18.38C6.313,18.414 6.313,18.447 6.315,18.479C6.316,18.494 6.317,18.509 6.32,18.524C6.319,18.527 6.32,18.528 6.321,18.529L6.321,18.531C6.321,18.534 6.321,18.537 6.322,18.538L6.322,18.544L6.323,18.545C6.322,18.546 6.322,18.547 6.323,18.549L6.324,18.554C6.334,18.615 6.351,18.672 6.376,18.729C6.383,18.746 6.392,18.763 6.402,18.781C6.403,18.782 6.403,18.783 6.404,18.784C6.418,18.811 6.435,18.836 6.454,18.862C6.466,18.878 6.48,18.896 6.494,18.911C6.496,18.913 6.497,18.915 6.498,18.915C6.499,18.918 6.5,18.919 6.502,18.92C6.504,18.923 6.506,18.926 6.508,18.928C6.511,18.931 6.514,18.934 6.517,18.937C6.518,18.937 6.519,18.939 6.52,18.941C6.55,18.972 6.583,18.998 6.621,19.024C6.635,19.036 6.653,19.045 6.669,19.055C6.675,19.059 6.68,19.061 6.687,19.064C6.691,19.067 6.695,19.068 6.7,19.07C6.701,19.072 6.702,19.072 6.703,19.072C6.727,19.085 6.752,19.094 6.779,19.103C6.795,19.111 6.813,19.116 6.831,19.12C6.836,19.121 6.843,19.123 6.849,19.123C6.851,19.125 6.852,19.124 6.853,19.124C6.856,19.126 6.858,19.126 6.861,19.126C6.865,19.128 6.868,19.129 6.872,19.129L6.877,19.13C6.878,19.13 6.879,19.13 6.881,19.13L6.88,19.13L6.881,19.13C6.884,19.132 6.889,19.132 6.892,19.132L6.898,19.134L6.905,19.134C6.906,19.136 6.909,19.136 6.911,19.136L6.918,19.136C6.92,19.137 6.922,19.137 6.924,19.137C6.925,19.137 6.925,19.137 6.926,19.137L6.934,19.138C6.937,19.139 6.94,19.139 6.942,19.139L6.945,19.139C6.948,19.14 6.951,19.14 6.953,19.139L6.957,19.14C6.961,19.141 6.964,19.141 6.969,19.141C6.976,19.143 6.983,19.142 6.989,19.142C6.99,19.142 6.99,19.142 6.991,19.142C6.992,19.143 6.994,19.143 6.995,19.143C7.031,19.143 7.067,19.142 7.102,19.137C7.118,19.136 7.132,19.134 7.148,19.132C7.149,19.132 7.151,19.134 7.152,19.134C7.209,19.165 7.271,19.185 7.336,19.19C7.336,19.191 7.336,19.191 7.336,19.192L7.39,19.192L7.39,19.191C7.401,19.19 7.412,19.19 7.422,19.189C7.444,19.187 7.462,19.181 7.482,19.174C7.505,19.168 7.528,19.158 7.55,19.145C7.58,19.129 7.607,19.107 7.631,19.085C7.644,19.072 7.656,19.059 7.666,19.046C7.689,19.02 7.709,18.991 7.724,18.96C7.738,18.933 7.749,18.906 7.757,18.878C7.766,18.847 7.772,18.815 7.773,18.782C7.773,18.781 7.772,18.779 7.774,18.777C7.774,18.776 7.774,18.775 7.774,18.774C7.772,18.771 7.773,18.769 7.773,18.767C7.773,18.765 7.772,18.762 7.774,18.759C7.774,18.753 7.774,18.746 7.774,18.739Z" style="fill:url(#_Linear2);"/>
                        </g>
                        <g transform="matrix(1,0,0,1,10.6176,3.68051)">
                            <path d="M6.886,18.009C6.894,18.007 6.902,18.006 6.911,18.005C6.913,18.005 6.914,18.004 6.916,18.003C6.917,18.002 6.919,18.003 6.921,18.002C6.923,18.001 6.925,18.002 6.926,18.001C6.927,18.002 6.927,18.002 6.927,18.001C6.929,18 6.931,18.001 6.933,18C6.934,18 6.934,18 6.935,18C6.937,17.999 6.939,18 6.941,17.999C6.944,17.998 6.947,17.999 6.95,17.998L6.963,17.998C6.967,17.997 6.972,17.998 6.977,17.997C6.978,17.998 6.98,17.998 6.983,17.997C6.994,17.997 7.003,17.997 7.014,17.997C7.035,17.998 7.054,17.999 7.074,18.002C7.129,18.009 7.181,18.027 7.229,18.054C7.247,18.066 7.263,18.077 7.279,18.091C7.293,18.105 7.306,18.12 7.318,18.138C7.322,18.148 7.327,18.159 7.331,18.169C7.332,18.171 7.331,18.172 7.331,18.174C7.333,18.176 7.331,18.177 7.332,18.18C7.333,18.193 7.333,18.207 7.329,18.218C7.313,18.265 7.269,18.278 7.236,18.269C7.226,18.267 7.216,18.262 7.208,18.255C7.198,18.248 7.188,18.239 7.18,18.229C7.166,18.211 7.149,18.197 7.13,18.184C7.125,18.184 7.123,18.181 7.12,18.178C7.119,18.178 7.119,18.178 7.119,18.177C7.108,18.172 7.097,18.166 7.086,18.163C7.068,18.153 7.048,18.149 7.027,18.146C7.011,18.144 6.995,18.144 6.979,18.145C6.951,18.146 6.923,18.153 6.9,18.169C6.881,18.182 6.869,18.2 6.861,18.22C6.855,18.239 6.858,18.255 6.87,18.269C6.88,18.285 6.895,18.292 6.91,18.302C6.93,18.312 6.951,18.32 6.972,18.327C6.976,18.328 6.979,18.331 6.983,18.332C6.996,18.336 7.008,18.338 7.022,18.342C7.057,18.352 7.092,18.357 7.127,18.366C7.145,18.371 7.163,18.375 7.179,18.38C7.181,18.382 7.183,18.382 7.183,18.382C7.197,18.388 7.209,18.394 7.222,18.399C7.262,18.417 7.299,18.441 7.331,18.473C7.333,18.476 7.335,18.479 7.339,18.483C7.35,18.496 7.359,18.509 7.367,18.523C7.375,18.541 7.383,18.562 7.386,18.581C7.386,18.581 7.386,18.583 7.387,18.584C7.387,18.586 7.386,18.589 7.387,18.59C7.387,18.59 7.387,18.591 7.387,18.592C7.388,18.602 7.388,18.613 7.387,18.623C7.386,18.634 7.384,18.647 7.381,18.659C7.367,18.714 7.334,18.76 7.291,18.798C7.291,18.8 7.29,18.8 7.289,18.801C7.289,18.802 7.288,18.802 7.287,18.802C7.286,18.803 7.284,18.804 7.283,18.806C7.281,18.81 7.276,18.813 7.271,18.815C7.267,18.818 7.263,18.823 7.258,18.825C7.257,18.826 7.256,18.828 7.254,18.828C7.243,18.832 7.232,18.839 7.221,18.846C7.221,18.85 7.216,18.85 7.214,18.85C7.209,18.852 7.205,18.856 7.2,18.856C7.182,18.864 7.165,18.87 7.146,18.875C7.134,18.876 7.123,18.878 7.112,18.882C7.103,18.883 7.094,18.884 7.086,18.885C7.083,18.885 7.081,18.885 7.078,18.886C7.073,18.886 7.069,18.886 7.064,18.887C7.063,18.887 7.062,18.887 7.061,18.888C7.041,18.888 7.02,18.887 7,18.885C6.961,18.883 6.925,18.878 6.889,18.869C6.888,18.869 6.887,18.869 6.886,18.869C6.882,18.866 6.879,18.866 6.875,18.866C6.87,18.864 6.864,18.861 6.857,18.86C6.84,18.853 6.824,18.848 6.808,18.84C6.764,18.821 6.725,18.794 6.693,18.756C6.687,18.748 6.682,18.741 6.676,18.733C6.667,18.719 6.663,18.707 6.659,18.693C6.658,18.69 6.658,18.687 6.658,18.685C6.657,18.684 6.658,18.682 6.657,18.68C6.657,18.68 6.657,18.679 6.657,18.678C6.656,18.672 6.656,18.667 6.657,18.662L6.657,18.66C6.658,18.659 6.657,18.658 6.658,18.656C6.66,18.641 6.666,18.63 6.675,18.62C6.687,18.609 6.702,18.599 6.718,18.597C6.719,18.597 6.721,18.596 6.722,18.596C6.724,18.595 6.726,18.596 6.728,18.595C6.732,18.594 6.735,18.595 6.737,18.594C6.745,18.594 6.752,18.594 6.759,18.596C6.778,18.597 6.793,18.607 6.806,18.62C6.81,18.623 6.813,18.624 6.817,18.628C6.823,18.631 6.826,18.636 6.831,18.641C6.839,18.651 6.847,18.662 6.857,18.672C6.878,18.693 6.901,18.709 6.926,18.721C6.929,18.722 6.932,18.724 6.935,18.727C6.951,18.733 6.965,18.737 6.983,18.741C6.983,18.741 6.985,18.742 6.986,18.742C6.988,18.742 6.99,18.742 6.992,18.742L7,18.744L7.01,18.744C7.019,18.746 7.029,18.746 7.038,18.744L7.048,18.744C7.048,18.744 7.049,18.744 7.05,18.743C7.052,18.742 7.054,18.742 7.056,18.742C7.083,18.739 7.11,18.73 7.133,18.712C7.154,18.696 7.167,18.675 7.171,18.649C7.175,18.62 7.166,18.596 7.144,18.577C7.132,18.567 7.121,18.561 7.109,18.554C7.085,18.543 7.062,18.537 7.038,18.528C7.009,18.521 6.982,18.514 6.954,18.506C6.952,18.506 6.948,18.506 6.948,18.502C6.93,18.499 6.913,18.496 6.895,18.491C6.853,18.479 6.812,18.465 6.774,18.444C6.765,18.439 6.758,18.433 6.75,18.43C6.739,18.421 6.728,18.413 6.717,18.403C6.69,18.375 6.672,18.341 6.666,18.302C6.666,18.302 6.666,18.301 6.666,18.299C6.665,18.296 6.666,18.294 6.665,18.292L6.665,18.291C6.664,18.29 6.665,18.287 6.664,18.285C6.664,18.285 6.664,18.284 6.664,18.283C6.663,18.271 6.664,18.26 6.663,18.248C6.663,18.248 6.663,18.246 6.664,18.243C6.664,18.242 6.664,18.241 6.664,18.241C6.665,18.239 6.664,18.235 6.665,18.233L6.665,18.232C6.666,18.231 6.665,18.228 6.666,18.225L6.666,18.223C6.666,18.223 6.666,18.22 6.666,18.219C6.666,18.213 6.667,18.207 6.669,18.202C6.67,18.2 6.669,18.2 6.669,18.198C6.672,18.192 6.674,18.186 6.677,18.18C6.687,18.15 6.703,18.124 6.724,18.101C6.75,18.073 6.78,18.052 6.814,18.036C6.826,18.031 6.836,18.025 6.848,18.022C6.849,18.022 6.849,18.021 6.851,18.02C6.862,18.017 6.875,18.014 6.886,18.009Z" style="fill:url(#_Linear3);"/>
                        </g>
                    </g>
                </g>
            </g>
        </g>
    </g>
    <defs>
        <linearGradient id="_Linear1" x1="0" y1="0" x2="1" y2="0" gradientUnits="userSpaceOnUse" gradientTransform="matrix(2.52801,0,0,2.52901,5.758,18.4425)"><stop offset="0" style="stop-color:rgb(54,54,61);stop-opacity:1"/><stop offset="0.14" style="stop-color:rgb(55,55,62);stop-opacity:1"/><stop offset="0.22" style="stop-color:rgb(61,61,68);stop-opacity:1"/><stop offset="0.29" style="stop-color:rgb(71,71,78);stop-opacity:1"/><stop offset="0.35" style="stop-color:rgb(88,87,93);stop-opacity:1"/><stop offset="0.41" style="stop-color:rgb(111,109,114);stop-opacity:1"/><stop offset="0.46" style="stop-color:rgb(141,140,143);stop-opacity:1"/><stop offset="0.5" style="stop-color:rgb(172,172,173);stop-opacity:1"/><stop offset="0.53" style="stop-color:rgb(137,136,140);stop-opacity:1"/><stop offset="0.58" style="stop-color:rgb(103,102,108);stop-opacity:1"/><stop offset="0.63" style="stop-color:rgb(77,76,83);stop-opacity:1"/><stop offset="0.68" style="stop-color:rgb(58,58,65);stop-opacity:1"/><stop offset="0.73" style="stop-color:rgb(45,44,52);stop-opacity:1"/><stop offset="0.8" style="stop-color:rgb(36,36,43);stop-opacity:1"/><stop offset="0.87" style="stop-color:rgb(31,31,38);stop-opacity:1"/><stop offset="1" style="stop-color:rgb(29,29,36);stop-opacity:1"/></linearGradient>
        <linearGradient id="_Linear2" x1="0" y1="0" x2="1" y2="0" gradientUnits="userSpaceOnUse" gradientTransform="matrix(1.50301,0,0,1.49901,6.271,18.4425)"><stop offset="0" style="stop-color:rgb(6,13,17);stop-opacity:1"/><stop offset="0.5" style="stop-color:rgb(35,64,88);stop-opacity:1"/><stop offset="1" style="stop-color:rgb(6,13,17);stop-opacity:1"/></linearGradient>
        <linearGradient id="_Linear3" x1="0" y1="0" x2="1" y2="0" gradientUnits="userSpaceOnUse" gradientTransform="matrix(0.731504,0,0,0.891005,6.65625,18.4425)"><stop offset="0" style="stop-color:rgb(29,44,56);stop-opacity:1"/><stop offset="0.04" style="stop-color:rgb(29,44,56);stop-opacity:1"/><stop offset="0.11" style="stop-color:rgb(181,190,194);stop-opacity:1"/><stop offset="0.15" style="stop-color:rgb(138,156,163);stop-opacity:1"/><stop offset="0.18" style="stop-color:rgb(138,156,163);stop-opacity:1"/><stop offset="0.22" style="stop-color:rgb(165,173,176);stop-opacity:1"/><stop offset="0.3" style="stop-color:rgb(172,186,189);stop-opacity:1"/><stop offset="0.41" style="stop-color:white;stop-opacity:1"/><stop offset="0.47" style="stop-color:white;stop-opacity:1"/><stop offset="0.52" style="stop-color:rgb(189,196,202);stop-opacity:1"/><stop offset="0.53" style="stop-color:rgb(189,196,202);stop-opacity:1"/><stop offset="0.58" style="stop-color:rgb(231,235,236);stop-opacity:1"/><stop offset="0.58" style="stop-color:rgb(231,235,236);stop-opacity:1"/><stop offset="0.6" style="stop-color:rgb(231,235,236);stop-opacity:1"/><stop offset="0.61" style="stop-color:rgb(214,221,224);stop-opacity:1"/><stop offset="0.63" style="stop-color:rgb(200,209,214);stop-opacity:1"/><stop offset="0.65" style="stop-color:rgb(189,201,207);stop-opacity:1"/><stop offset="0.67" style="stop-color:rgb(183,196,203);stop-opacity:1"/><stop offset="0.74" style="stop-color:rgb(181,195,202);stop-opacity:1"/><stop offset="0.79" style="stop-color:rgb(181,195,202);stop-opacity:1"/><stop offset="0.81" style="stop-color:rgb(175,190,198);stop-opacity:1"/><stop offset="0.83" style="stop-color:rgb(160,176,186);stop-opacity:1"/><stop offset="0.84" style="stop-color:rgb(141,160,172);stop-opacity:1"/><stop offset="0.86" style="stop-color:rgb(141,160,172);stop-opacity:1"/><stop offset="0.91" style="stop-color:rgb(157,174,186);stop-opacity:1"/><stop offset="0.93" style="stop-color:rgb(157,174,186);stop-opacity:1"/><stop offset="0.98" style="stop-color:rgb(135,152,168);stop-opacity:1"/><stop offset="1" style="stop-color:rgb(135,152,168);stop-opacity:1"/></linearGradient>
    </defs>
</svg>
