<?xml version="1.0" encoding="UTF-8" standalone="no"?>
<!DOCTYPE svg PUBLIC "-//W3C//DTD SVG 1.1//EN" "http://www.w3.org/Graphics/SVG/1.1/DTD/svg11.dtd">
<svg width="100%" height="100%" viewBox="0 0 48 50" version="1.1" xmlns="http://www.w3.org/2000/svg" xmlns:xlink="http://www.w3.org/1999/xlink" xml:space="preserve" xmlns:serif="http://www.serif.com/" style="fill-rule:evenodd;clip-rule:evenodd;stroke-linejoin:round;stroke-miterlimit:1.41421;">
    <g transform="matrix(1,0,0,1,-188,-249)">
        <g transform="matrix(0.461243,-0.12787,0.039158,0.142332,-53.0383,219.513)">
            <rect x="316.765" y="434.312" width="305.681" height="878.889" style="fill:rgb(255,0,0);"/>
            <rect x="316.765" y="434.312" width="305.681" height="878.889" style="fill:rgb(255,0,0);"/>
            <rect x="316.765" y="434.312" width="305.681" height="878.889" style="fill:rgb(255,0,0);"/>
        </g>
        <g transform="matrix(-0.113326,0.0355223,-0.0367742,-0.118221,492.923,327.32)">
            <path d="M2146.32,344.771L2754.59,1270.07L1538.06,1270.07L2146.32,344.771Z" style="fill:rgb(13,2,0);"/>
            <path d="M2146.32,344.771L2754.59,1270.07L1538.06,1270.07L2146.32,344.771Z" style="fill:rgb(13,2,0);"/>
            <path d="M2146.32,344.771L2754.59,1270.07L1538.06,1270.07L2146.32,344.771Z" style="fill:rgb(13,2,0);"/>
        </g>
        <g transform="matrix(0.0521222,0,0,0.0367861,108.148,278.227)">
            <g transform="matrix(2.16834,0,0,3.0841,-1484.91,-314.094)">
                <text x="1416.1px" y="639.647px" style="font-family:'DSHansen', 'DS Hansen';font-size:640.808px;fill:white;">M</text>
            </g>
            <g transform="matrix(2.16834,0,0,3.0841,-1484.91,-314.094)">
                <text x="1416.1px" y="639.647px" style="font-family:'DSHansen', 'DS Hansen';font-size:640.808px;fill:white;">M</text>
            </g>
            <g transform="matrix(2.16834,0,0,3.0841,-1484.91,-314.094)">
                <text x="1416.1px" y="639.647px" style="font-family:'DSHansen', 'DS Hansen';font-size:640.808px;fill:white;">M</text>
            </g>
        </g>
        <g transform="matrix(-0.185347,0.966611,0.119451,0.0230805,129.646,-305.126)">
        </g>
        <g transform="matrix(0.159412,0,0,0.0493859,148.998,203.283)">
            <g transform="matrix(0.776203,0,0,2.51509,71.1052,-680.343)">
                <text x="417.668px" y="895.632px" style="font-family:'DSHansen', 'DS Hansen';font-size:585.305px;fill:white;">E</text>
            </g>
            <g transform="matrix(0.776203,0,0,2.51509,71.1052,-680.343)">
                <text x="417.668px" y="895.632px" style="font-family:'DSHansen', 'DS Hansen';font-size:585.305px;fill:white;">E</text>
            </g>
            <g transform="matrix(0.776203,0,0,2.51509,71.1052,-680.343)">
                <text x="417.668px" y="895.632px" style="font-family:'DSHansen', 'DS Hansen';font-size:585.305px;fill:white;">E</text>
            </g>
        </g>
        <g transform="matrix(0.232036,-0.0129636,0.00273388,0.0493096,66.2821,210.194)">
            <g transform="matrix(0.532433,0,0,2.51512,148.557,-680.356)">
                <text x="516.851px" y="895.632px" style="font-family:'DSHansen', 'DS Hansen';font-size:585.305px;fill:white;">R</text>
            </g>
            <g transform="matrix(0.532433,0,0,2.51512,148.557,-680.356)">
                <text x="516.851px" y="895.632px" style="font-family:'DSHansen', 'DS Hansen';font-size:585.305px;fill:white;">R</text>
            </g>
            <g transform="matrix(0.532433,0,0,2.51512,148.557,-680.356)">
                <text x="516.851px" y="895.632px" style="font-family:'DSHansen', 'DS Hansen';font-size:585.305px;fill:white;">R</text>
            </g>
        </g>
        <g transform="matrix(0.179855,0,0,0.0554166,70.1303,259.469)">
            <g transform="matrix(0.71171,0,0,2.31871,91.5962,-592.159)">
                <text x="435.986px" y="880.74px" style="font-family:'DSHansen', 'DS Hansen';font-size:565.787px;fill:white;">A</text>
            </g>
            <g transform="matrix(0.71171,0,0,2.31871,91.5962,-592.159)">
                <text x="435.986px" y="880.74px" style="font-family:'DSHansen', 'DS Hansen';font-size:565.787px;fill:white;">A</text>
            </g>
            <g transform="matrix(0.71171,0,0,2.31871,91.5962,-592.159)">
                <text x="435.986px" y="880.74px" style="font-family:'DSHansen', 'DS Hansen';font-size:565.787px;fill:white;">A</text>
            </g>
        </g>
        <g transform="matrix(0.155769,-0.034013,0.010457,0.0482575,53.9412,226.03)">
        </g>
    </g>
</svg>
