<?xml version="1.0" encoding="UTF-8" standalone="no"?>
<!DOCTYPE svg PUBLIC "-//W3C//DTD SVG 1.1//EN" "http://www.w3.org/Graphics/SVG/1.1/DTD/svg11.dtd">
<svg width="100%" height="100%" viewBox="0 0 26 89" version="1.1" xmlns="http://www.w3.org/2000/svg" xmlns:xlink="http://www.w3.org/1999/xlink" xml:space="preserve" xmlns:serif="http://www.serif.com/" style="fill-rule:evenodd;clip-rule:evenodd;stroke-linejoin:round;stroke-miterlimit:1.41421;">
    <g transform="matrix(1,0,0,1,-273,-274)">
        <g transform="matrix(0.461243,-0.12787,0.039158,0.142332,-53.0383,219.513)">
            <rect x="316.765" y="434.312" width="305.681" height="878.889" style="fill:rgb(255,0,0);"/>
            <rect x="316.765" y="434.312" width="305.681" height="878.889" style="fill:rgb(255,0,0);"/>
            <rect x="316.765" y="434.312" width="305.681" height="878.889" style="fill:rgb(255,0,0);"/>
        </g>
        <g transform="matrix(-0.113326,0.0355223,-0.0367742,-0.118221,492.923,327.32)">
            <path d="M2146.32,344.771L2754.59,1270.07L1538.06,1270.07L2146.32,344.771Z" style="fill:rgb(13,2,0);"/>
            <path d="M2146.32,344.771L2754.59,1270.07L1538.06,1270.07L2146.32,344.771Z" style="fill:rgb(13,2,0);"/>
            <path d="M2146.32,344.771L2754.59,1270.07L1538.06,1270.07L2146.32,344.771Z" style="fill:rgb(13,2,0);"/>
        </g>
        <g transform="matrix(0.0521222,0,0,0.0367861,108.148,278.227)">
        </g>
        <g transform="matrix(0.159412,0,0,0.0493859,148.998,203.283)">
        </g>
        <g transform="matrix(0.232036,-0.0129636,0.00273388,0.0493096,66.2821,210.194)">
        </g>
    </g>
</svg>
