<?xml version="1.0" encoding="UTF-8" standalone="no"?><!DOCTYPE svg PUBLIC "-//W3C//DTD SVG 1.1//EN" "http://www.w3.org/Graphics/SVG/1.1/DTD/svg11.dtd"><svg width="655px" height="440px" version="1.1" xmlns="http://www.w3.org/2000/svg" xmlns:xlink="http://www.w3.org/1999/xlink" xml:space="preserve" xmlns:serif="http://www.serif.com/" style="fill-rule:evenodd;clip-rule:evenodd;stroke-linejoin:round;stroke-miterlimit:1.41421;"><g transform="matrix(1,0,0,1,-67.5294,-141.91)"><g transform="matrix(1,0,0,1,-247.321,-5.84112)"><g transform="matrix(1.1673,0,0,1.1673,295.054,3.15416)"><g><g id="XMLID_1431_" transform="matrix(-0.000913306,-1,1,-0.000913306,93.9218,731.71)"><rect x="315.443" y="307.409" width="194.077" height="23.055" style="fill:rgb(238,109,50);"/></g><rect id="XMLID_1426_" x="418.447" y="400.411" width="5.494" height="1.484" style="fill:white;"/><rect id="XMLID_1425_" x="418.442" y="396.133" width="5.494" height="1.484" style="fill:white;"/><g id="XMLID_1424_" transform="matrix(-1,0.000662716,-0.000662716,-1,839.284,784.917)"><rect x="415.092" y="391.856" width="8.84" height="1.482" style="fill:white;"/></g><rect id="XMLID_1423_" x="418.432" y="387.49" width="5.495" height="1.484" style="fill:white;"/><rect id="XMLID_1422_" x="418.427" y="383.211" width="5.496" height="1.484" style="fill:white;"/><g id="XMLID_1421_" transform="matrix(-1,0.000662716,-0.000662716,-1,839.246,759.074)"><rect x="415.077" y="378.935" width="8.84" height="1.483" style="fill:white;"/></g><g id="XMLID_1420_" transform="matrix(-1,0.0011,-0.0011,-1,842.731,750.174)"><rect x="418.418" y="374.569" width="5.494" height="1.484" style="fill:white;"/></g><rect id="XMLID_1419_" x="418.413" y="370.29" width="5.495" height="1.484" style="fill:white;"/><g id="XMLID_1418_" transform="matrix(-1,0.000662716,-0.000662716,-1,839.209,733.232)"><rect x="415.063" y="366.014" width="8.841" height="1.482" style="fill:white;"/></g><rect id="XMLID_1417_" x="418.404" y="361.648" width="5.495" height="1.482" style="fill:white;"/><rect id="XMLID_1416_" x="418.399" y="357.37" width="5.495" height="1.483" style="fill:white;"/><g id="XMLID_1415_" transform="matrix(-1,0.000773104,-0.000773104,-1,839.212,707.343)"><rect x="415.049" y="353.091" width="8.841" height="1.484" style="fill:white;"/></g><g id="XMLID_1414_" transform="matrix(-1,0.000773104,-0.000773104,-1,839.212,707.343)"><rect x="415.049" y="353.091" width="8.841" height="1.484" style="fill:white;"/></g><rect id="XMLID_1413_" x="418.389" y="348.727" width="5.496" height="1.482" style="fill:white;"/><rect id="XMLID_1412_" x="418.385" y="344.448" width="5.495" height="1.482" style="fill:white;"/><g id="XMLID_1411_" transform="matrix(-1,0.000662955,-0.000662955,-1,839.138,681.546)"><rect x="415.036" y="340.171" width="8.839" height="1.482" style="fill:white;"/></g><g id="XMLID_1410_" transform="matrix(-1,0.000662955,-0.000662955,-1,839.138,681.546)"><rect x="415.036" y="340.171" width="8.839" height="1.482" style="fill:white;"/></g><rect id="XMLID_1409_" x="418.376" y="335.806" width="5.495" height="1.482" style="fill:white;"/><rect id="XMLID_1408_" x="418.372" y="331.527" width="5.494" height="1.482" style="fill:white;"/><g id="XMLID_1407_" transform="matrix(-1,0.00088373,-0.00088373,-1,839.172,655.612)"><rect x="415.021" y="327.25" width="8.84" height="1.482" style="fill:white;"/></g><g id="XMLID_1406_" transform="matrix(-1,0.00088373,-0.00088373,-1,839.172,655.612)"><rect x="415.021" y="327.25" width="8.84" height="1.482" style="fill:white;"/></g><rect id="XMLID_1405_" x="418.362" y="322.884" width="5.495" height="1.483" style="fill:white;"/><rect id="XMLID_1404_" x="418.357" y="318.605" width="5.495" height="1.482" style="fill:white;"/><g id="XMLID_1403_" transform="matrix(-1,0.000773342,-0.000773342,-1,839.097,629.815)"><rect x="415.007" y="314.329" width="8.84" height="1.482" style="fill:white;"/></g><g id="XMLID_1402_" transform="matrix(-1,0.000773342,-0.000773342,-1,839.097,629.815)"><rect x="415.007" y="314.329" width="8.84" height="1.482" style="fill:white;"/></g><rect id="XMLID_1401_" x="418.348" y="309.963" width="5.495" height="1.483" style="fill:white;"/><rect id="XMLID_1400_" x="418.343" y="305.684" width="5.494" height="1.483" style="fill:white;"/><g id="XMLID_1399_" transform="matrix(-1,0.00088373,-0.00088373,-1,839.092,603.927)"><rect x="414.992" y="301.407" width="8.841" height="1.483" style="fill:white;"/></g><g id="XMLID_1398_" transform="matrix(-1,0.00088373,-0.00088373,-1,839.092,603.927)"><rect x="414.992" y="301.407" width="8.841" height="1.483" style="fill:white;"/></g><rect id="XMLID_1397_" x="418.333" y="297.041" width="5.495" height="1.482" style="fill:white;"/><rect id="XMLID_1396_" x="418.33" y="292.763" width="5.494" height="1.483" style="fill:white;"/><g id="XMLID_1395_" transform="matrix(-1,0.00088373,-0.00088373,-1,839.054,578.084)"><rect x="414.979" y="288.485" width="8.84" height="1.484" style="fill:white;"/></g><g id="XMLID_1394_" transform="matrix(-1,0.00088373,-0.00088373,-1,839.054,578.084)"><rect x="414.979" y="288.485" width="8.84" height="1.484" style="fill:white;"/></g><rect id="XMLID_1393_" x="418.319" y="284.12" width="5.495" height="1.483" style="fill:white;"/><rect id="XMLID_1392_" x="418.313" y="279.841" width="5.496" height="1.483" style="fill:white;"/><g id="XMLID_1391_" transform="matrix(-1,0.000773342,-0.000773342,-1,838.983,552.288)"><rect x="414.965" y="275.564" width="8.839" height="1.484" style="fill:white;"/></g><g id="XMLID_1390_" transform="matrix(-1,0.000773342,-0.000773342,-1,838.983,552.288)"><rect x="414.965" y="275.564" width="8.839" height="1.484" style="fill:white;"/></g><rect id="XMLID_1389_" x="418.305" y="271.199" width="5.495" height="1.484" style="fill:white;"/><rect id="XMLID_1388_" x="418.3" y="266.92" width="5.495" height="1.484" style="fill:white;"/><g id="XMLID_1387_" transform="matrix(-1,0.00088373,-0.00088373,-1,838.974,526.399)"><rect x="414.951" y="262.643" width="8.84" height="1.484" style="fill:white;"/></g><g id="XMLID_1254_" transform="matrix(-1,0.00088373,-0.00088373,-1,838.974,526.399)"><rect x="414.951" y="262.643" width="8.84" height="1.484" style="fill:white;"/></g><rect id="XMLID_1248_" x="418.292" y="258.278" width="5.494" height="1.482" style="fill:white;"/><g id="XMLID_1246_" transform="matrix(-1,0.0011,-0.0011,-1,842.34,509.033)"><rect x="418.287" y="253.999" width="5.495" height="1.484" style="fill:white;"/></g><g id="XMLID_1241_" transform="matrix(-1,0.000773342,-0.000773342,-1,838.906,500.602)"><rect x="414.936" y="249.721" width="8.84" height="1.484" style="fill:white;"/></g><g id="XMLID_1235_" transform="matrix(-1,0.000773342,-0.000773342,-1,838.906,500.602)"><rect x="414.936" y="249.721" width="8.84" height="1.484" style="fill:white;"/></g><rect id="XMLID_1059_" x="418.277" y="245.357" width="5.495" height="1.482" style="fill:white;"/><rect id="XMLID_1058_" x="418.273" y="241.078" width="5.494" height="1.483" style="fill:white;"/><g id="XMLID_1057_" transform="matrix(-1,0.000773342,-0.000773342,-1,838.869,474.76)"><rect x="414.923" y="236.8" width="8.839" height="1.483" style="fill:white;"/></g><g id="XMLID_1056_" transform="matrix(-1,0.000773342,-0.000773342,-1,838.869,474.76)"><rect x="414.923" y="236.8" width="8.839" height="1.483" style="fill:white;"/></g><rect id="XMLID_1055_" x="418.264" y="232.435" width="5.494" height="1.483" style="fill:white;"/><rect id="XMLID_1054_" x="418.259" y="228.157" width="5.494" height="1.482" style="fill:white;"/><g id="XMLID_1053_" transform="matrix(-1,0.00088373,-0.00088373,-1,838.854,448.87)"><rect x="414.908" y="223.879" width="8.84" height="1.483" style="fill:white;"/></g><rect id="XMLID_1429_" x="418.459" y="413.334" width="5.496" height="1.483" style="fill:white;"/><rect id="XMLID_1428_" x="418.455" y="409.056" width="5.495" height="1.482" style="fill:white;"/><g id="XMLID_1427_" transform="matrix(-1,0.000662955,-0.000662955,-1,839.321,810.761)"><rect x="415.106" y="404.778" width="8.839" height="1.482" style="fill:white;"/></g></g><g><rect x="418.716" y="461.129" width="83.787" height="1.899" style="fill:rgb(161,169,214);"/><rect x="158.477" y="443.169" width="185.58" height="1.899" style="fill:rgb(161,169,214);"/><rect x="386.673" y="461.129" width="16.847" height="1.899" style="fill:rgb(161,169,214);"/><rect x="514.863" y="478.722" width="49.179" height="1.9" style="fill:rgb(161,169,214);"/><rect x="496.055" y="478.722" width="9.889" height="1.9" style="fill:rgb(161,169,214);"/><g><rect x="511.123" y="444.285" width="28.645" height="1.9" style="fill:rgb(161,169,214);"/><rect x="550.397" y="444.285" width="9.72" height="1.9" style="fill:rgb(161,169,214);"/><rect x="500.167" y="444.285" width="5.759" height="1.9" style="fill:rgb(161,169,214);"/></g><g><rect x="179.994" y="498.168" width="28.645" height="1.9" style="fill:rgb(161,169,214);"/><rect x="219.268" y="498.168" width="9.72" height="1.9" style="fill:rgb(161,169,214);"/><rect x="169.039" y="498.168" width="5.76" height="1.9" style="fill:rgb(161,169,214);"/></g><g><rect x="145.841" y="485.531" width="55.479" height="1.899" style="fill:rgb(161,169,214);"/><rect x="221.905" y="485.531" width="18.826" height="1.899" style="fill:rgb(161,169,214);"/><rect x="124.623" y="485.531" width="11.155" height="1.899" style="fill:rgb(161,169,214);"/></g><g><rect x="67.152" y="453.844" width="23.921" height="1.9" style="fill:rgb(161,169,214);"/><rect x="102.397" y="453.844" width="10.354" height="1.9" style="fill:rgb(161,169,214);"/></g></g><path d="M77.814,381.281C77.795,381.157 77.649,381.029 77.649,380.9L77.649,361.924C77.649,360.514 78.926,359.396 80.337,359.396L91.977,359.372C93.387,359.372 94.546,360.491 94.546,361.9L94.546,380.9C94.546,381.031 94.584,381.157 94.566,381.281C101.416,378.29 106.01,371.726 106.01,364.109C106.01,356.605 100.771,349.044 94.546,345.387L94.546,263.065C94.546,258.294 91.168,254.625 86.399,254.625L86.378,254.625C81.606,254.625 77.649,258.295 77.649,263.065L77.649,345.387C70.535,349.044 66.278,356.603 66.278,364.109C66.279,371.726 70.964,378.29 77.814,381.281ZM86.284,259.541C88.131,259.541 89.629,261.038 89.629,262.886C89.629,264.732 88.131,266.23 86.285,266.23C84.437,266.23 82.94,264.732 82.941,262.885C82.939,261.038 84.438,259.54 86.284,259.541Z" style="fill:rgb(204,204,209);fill-rule:nonzero;"/><g><path d="M521.473,428.158L511.399,418.319C510.862,417.796 510.563,417.067 510.574,416.32C510.586,415.572 510.908,414.853 511.458,414.346L515.755,410.397C515.952,410.217 516.001,409.925 515.877,409.69C515.449,408.886 515.186,408.402 515.024,408.111L506.883,408.111C505.376,408.111 504.148,406.884 504.148,405.376L504.148,392.572C504.148,391.063 505.376,389.837 506.883,389.837L514.112,389.837C514.396,389.837 514.644,389.625 514.688,389.344C514.877,388.129 515.258,387 515.821,385.989C515.934,385.785 515.901,385.525 515.738,385.34L510.978,379.899C510.041,378.825 510.091,377.189 511.092,376.174L520.013,367.153C520.532,366.63 521.221,366.341 521.957,366.341C521.964,366.341 521.97,366.341 521.977,366.341C522.721,366.347 523.415,366.644 523.93,367.18L528.215,371.635C528.386,371.815 528.653,371.87 528.878,371.765C529.451,371.505 530.828,370.999 532.973,370.262C533.554,370.062 533.944,369.514 533.944,368.9L533.944,365.022C533.944,363.514 535.171,362.286 536.679,362.286L549.483,362.286C550.992,362.286 552.219,363.515 552.219,365.022L552.219,370.04C552.219,370.306 552.403,370.534 552.676,370.612C553.513,370.85 554.441,371.254 555.432,371.81C555.653,371.934 555.927,371.901 556.113,371.73L560.995,367.247C562.091,366.242 563.762,366.285 564.802,367.35L573.898,376.648C574.92,377.691 574.942,379.349 573.948,380.421L569.373,385.346C569.199,385.534 569.165,385.806 569.286,386.022C569.857,387.027 570.246,388.148 570.439,389.35C570.483,389.628 570.731,389.838 571.014,389.838L575.017,389.838C576.526,389.838 577.754,391.065 577.754,392.573L577.754,405.377C577.754,406.886 576.526,408.112 575.017,408.112L570.096,408.112C569.93,408.4 569.658,408.882 569.218,409.682C569.084,409.924 569.14,410.231 569.352,410.411L573.406,413.869C573.987,414.362 574.336,415.082 574.365,415.845C574.394,416.608 574.101,417.354 573.559,417.892L563.359,428.013L561.846,426.489L572.046,416.367C572.204,416.211 572.222,416.025 572.218,415.929C572.215,415.832 572.184,415.65 572.014,415.504L567.959,412.046C566.975,411.207 566.714,409.776 567.336,408.646C568.812,405.964 568.812,405.964 569.504,405.964L575.018,405.964C575.342,405.964 575.606,405.701 575.606,405.377L575.606,392.573C575.606,392.249 575.341,391.986 575.018,391.986L571.015,391.986C569.666,391.986 568.532,391.02 568.318,389.691C568.166,388.743 567.863,387.865 567.419,387.083C566.832,386.049 566.985,384.763 567.799,383.885L572.374,378.96C572.586,378.731 572.583,378.374 572.363,378.15L563.268,368.852C563.044,368.623 562.685,368.611 562.45,368.83L557.568,373.312C556.697,374.113 555.418,374.262 554.383,373.685C553.536,373.208 552.764,372.87 552.089,372.678C550.883,372.334 550.072,371.273 550.072,370.039L550.072,365.021C550.072,364.697 549.809,364.433 549.485,364.433L536.68,364.433C536.356,364.433 536.093,364.697 536.093,365.021L536.093,368.899C536.093,370.43 535.121,371.795 533.674,372.293C531.651,372.988 530.263,373.495 529.768,373.721C528.714,374.198 527.469,373.959 526.667,373.124L522.382,368.67C522.232,368.512 522.078,368.473 521.959,368.489C521.865,368.489 521.691,368.511 521.541,368.663L512.621,377.683C512.406,377.901 512.395,378.251 512.597,378.484L517.357,383.926C518.114,384.79 518.252,386.039 517.7,387.031C517.262,387.82 516.963,388.711 516.813,389.676C516.604,391.014 515.469,391.986 514.114,391.986L506.885,391.986C506.561,391.986 506.298,392.249 506.298,392.573L506.298,405.377C506.298,405.701 506.561,405.964 506.885,405.964L515.629,405.964C516.33,405.964 516.33,405.964 517.775,408.682C518.359,409.783 518.128,411.137 517.211,411.981L512.914,415.93C512.752,416.078 512.726,416.259 512.725,416.354C512.722,416.449 512.745,416.629 512.902,416.784L522.975,426.622L521.473,428.158Z" style="fill:url(#_Linear1);fill-rule:nonzero;"/><g><path d="M535.754,425.109L549.47,425.109L549.47,418.132L550.159,417.866C558.391,414.706 563.711,406.93 563.711,398.059C563.711,386.277 554.166,376.689 542.431,376.689C530.672,376.689 521.106,386.277 521.106,398.059C521.106,407.091 526.58,414.942 535.051,418.059L535.753,418.318L535.753,425.109L535.754,425.109Z" style="fill:rgb(21,29,121);fill-rule:nonzero;"/><path d="M550.42,426.06L534.805,426.06L534.805,418.982L534.724,418.953C525.875,415.696 520.158,407.496 520.158,398.061C520.158,385.753 530.151,375.742 542.433,375.742C554.69,375.742 564.662,385.754 564.662,398.061C564.662,407.329 559.103,415.452 550.5,418.755L550.42,418.786L550.42,426.06ZM536.705,424.159L548.52,424.159L548.52,417.479L549.819,416.981C557.682,413.961 562.762,406.535 562.762,398.06C562.762,386.801 553.642,377.64 542.432,377.64C531.197,377.64 522.057,386.801 522.057,398.06C522.057,406.69 527.286,414.19 535.38,417.168L536.704,417.656L536.704,424.159L536.705,424.159Z" style="fill:url(#_Linear2);fill-rule:nonzero;"/></g><g><path d="M547.386,400.817C547.386,398.409 545.427,396.45 543.018,396.45C540.61,396.45 538.65,398.409 538.65,400.817C538.65,402.653 539.792,404.221 541.4,404.866L541.4,427.625L543.985,427.625L543.985,405.068C545.928,404.627 547.386,402.893 547.386,400.817ZM543.018,402.601C542.036,402.601 541.235,401.801 541.235,400.818C541.235,399.835 542.035,399.037 543.018,399.037C544.001,399.037 544.801,399.835 544.801,400.818C544.801,401.801 544.001,402.601 543.018,402.601Z" style="fill:rgb(21,29,121);fill-rule:nonzero;"/><path d="M544.936,428.575L540.45,428.575L540.45,405.466C538.761,404.537 537.7,402.777 537.7,400.818C537.7,397.886 540.086,395.502 543.018,395.502C545.95,395.502 548.335,397.887 548.335,400.818C548.335,403.051 546.97,404.992 544.935,405.771L544.935,428.575L544.936,428.575ZM542.35,426.676L543.036,426.676L543.036,404.311L543.776,404.142C545.318,403.792 546.437,402.394 546.437,400.818C546.437,398.934 544.904,397.401 543.02,397.401C541.135,397.401 539.602,398.934 539.602,400.818C539.602,402.217 540.447,403.461 541.755,403.985L542.351,404.224L542.351,426.676L542.35,426.676ZM543.019,403.55C541.512,403.55 540.285,402.324 540.285,400.818C540.285,399.312 541.512,398.086 543.019,398.086C544.526,398.086 545.751,399.312 545.751,400.818C545.751,402.324 544.525,403.55 543.019,403.55ZM543.019,399.985C542.559,399.985 542.185,400.358 542.185,400.817C542.185,401.276 542.559,401.649 543.019,401.649C543.478,401.649 543.852,401.276 543.852,400.817C543.852,400.358 543.478,399.985 543.019,399.985Z" style="fill:white;fill-rule:nonzero;"/></g><path d="M534.195,423.957C532.784,423.957 531.635,425.105 531.635,426.517L531.635,432.645C531.635,434.056 532.783,435.205 534.195,435.205L550.625,435.205C552.036,435.205 553.185,434.057 553.185,432.645L553.185,426.517C553.185,425.106 552.037,423.957 550.625,423.957L534.195,423.957Z" style="fill:url(#_Linear3);fill-rule:nonzero;"/></g><g><path d="M291.35,133.402L291.35,133.258C291.35,132.82 291.478,132.405 291.721,132.058C292.005,131.652 292.424,131.362 292.897,131.236L302.323,124.681C303.281,124.026 304.587,124.263 305.24,125.207C305.877,126.133 305.624,127.488 304.712,128.118L297.215,133.33L304.715,138.543C305.623,139.17 305.875,140.529 305.243,141.45C304.585,142.399 303.277,142.638 302.325,141.978L292.899,135.424C292.424,135.299 292.003,135.008 291.72,134.601C291.477,134.251 291.35,133.837 291.35,133.402ZM293.25,133.383L292.3,133.403L293.25,133.403C293.25,133.466 293.267,133.499 293.281,133.519C293.31,133.56 293.351,133.586 293.403,133.592L293.633,133.622L303.409,140.419C303.497,140.48 303.619,140.459 303.68,140.372C303.718,140.315 303.802,140.221 303.634,140.106L293.887,133.331L303.631,126.557C303.803,126.439 303.718,126.347 303.677,126.288C303.618,126.202 303.494,126.184 303.402,126.245L293.635,133.038L293.408,133.068C293.37,133.073 293.316,133.091 293.278,133.145C293.271,133.155 293.249,133.187 293.249,133.258L293.249,133.383L293.25,133.383Z" style="fill:rgb(161,169,214);fill-rule:nonzero;"/><path d="M301.605,133.409L301.605,133.253C301.605,132.819 301.734,132.406 301.977,132.059C302.262,131.653 302.682,131.363 303.155,131.237L312.581,124.682C313.534,124.027 314.838,124.264 315.493,125.208C316.129,126.115 315.887,127.484 314.972,128.118L307.469,133.331L314.973,138.544C315.888,139.176 316.134,140.541 315.492,141.457C315.177,141.913 314.7,142.221 314.15,142.32C313.6,142.419 313.043,142.299 312.583,141.978L303.158,135.425C302.683,135.3 302.262,135.01 301.978,134.604C301.733,134.25 301.605,133.838 301.605,133.409ZM303.506,133.391L302.555,133.41L303.505,133.41C303.505,133.466 303.523,133.498 303.538,133.519C303.576,133.573 303.632,133.588 303.662,133.592L303.891,133.622L313.666,140.419C313.721,140.456 313.774,140.456 313.81,140.451C313.846,140.444 313.894,140.425 313.932,140.372C313.978,140.306 314.057,140.221 313.89,140.105L304.138,133.331L313.889,126.557C314.055,126.443 313.975,126.353 313.934,126.294C313.872,126.204 313.75,126.184 313.662,126.244L303.893,133.038L303.667,133.067C303.634,133.073 303.574,133.089 303.533,133.147C303.528,133.155 303.504,133.188 303.504,133.252L303.506,133.391Z" style="fill:rgb(161,169,214);fill-rule:nonzero;"/><path d="M311.862,132.975L311.862,132.81C311.862,132.376 311.991,131.963 312.235,131.617C312.511,131.216 312.932,130.924 313.41,130.798L322.833,124.244C323.796,123.589 325.102,123.83 325.752,124.773C326.386,125.68 326.14,127.045 325.226,127.68L317.725,132.894L325.226,138.104C326.139,138.737 326.388,140.097 325.751,141.015C325.096,141.962 323.788,142.199 322.835,141.542L313.409,134.986C312.929,134.858 312.508,134.565 312.229,134.159C311.992,133.819 311.862,133.407 311.862,132.975ZM313.764,132.956L312.813,132.975L313.763,132.975C313.763,133.03 313.778,133.057 313.791,133.076C313.83,133.134 313.885,133.15 313.923,133.156L314.15,133.186L323.919,139.98C324.008,140.042 324.128,140.023 324.19,139.933C324.231,139.874 324.312,139.782 324.144,139.664L314.396,132.893L324.144,126.119C324.312,126.003 324.231,125.911 324.191,125.853C324.128,125.762 324.005,125.744 323.91,125.809L314.15,132.596L313.923,132.627C313.892,132.631 313.832,132.647 313.795,132.7C313.777,132.725 313.763,132.754 313.763,132.808L313.764,132.956Z" style="fill:rgb(161,169,214);fill-rule:nonzero;"/><path d="M322.12,132.979L322.12,132.807C322.12,132.385 322.244,131.978 322.481,131.629C322.773,131.215 323.191,130.924 323.664,130.797L333.096,124.243C334.048,123.588 335.353,123.825 336.01,124.768C336.645,125.684 336.398,127.046 335.483,127.68L327.984,132.893L335.484,138.103C336.398,138.735 336.648,140.098 336.011,141.014C335.69,141.474 335.211,141.783 334.661,141.88C334.11,141.981 333.554,141.859 333.094,141.537L323.664,134.984C323.191,134.857 322.772,134.568 322.49,134.165C322.244,133.805 322.12,133.398 322.12,132.979ZM324.02,132.964L323.07,132.979L324.02,132.979C324.02,133.018 324.031,133.055 324.054,133.09C324.076,133.121 324.121,133.147 324.179,133.155L324.405,133.185L334.179,139.979C334.256,140.033 334.398,140.005 334.45,139.931C334.487,139.876 334.571,139.783 334.401,139.664L324.653,132.893L334.4,126.119C334.572,126 334.488,125.909 334.449,125.853C334.388,125.764 334.265,125.744 334.175,125.805L324.404,132.596L324.178,132.627C324.139,132.632 324.084,132.65 324.044,132.707C324.03,132.728 324.019,132.765 324.019,132.806L324.019,132.964L324.02,132.964Z" style="fill:rgb(161,169,214);fill-rule:nonzero;"/></g><g><path d="M512.021,266.215C511.347,266.419 510.828,266.695 510.474,267.04C510.118,267.396 509.879,267.856 509.744,268.434C509.609,269.009 509.543,270.017 509.543,271.477C509.543,272.37 509.513,272.995 509.446,273.36C509.37,273.84 509.235,274.233 509.033,274.561C508.831,274.878 508.59,275.099 508.313,275.242C508.035,275.377 507.622,275.454 507.074,275.493L507.074,278.191C507.765,278.228 508.273,278.373 508.61,278.641C508.948,278.902 509.195,279.324 509.36,279.928C509.476,280.342 509.543,281.235 509.543,282.616C509.543,283.807 509.6,284.679 509.734,285.229C509.859,285.784 510.11,286.246 510.484,286.621C510.857,286.996 511.31,287.265 511.848,287.426C512.393,287.591 513.173,287.678 514.191,287.678L514.786,287.678L514.786,284.969C513.98,284.969 513.451,284.921 513.21,284.816C512.972,284.711 512.787,284.566 512.665,284.364C512.549,284.173 512.491,283.828 512.491,283.337C512.491,282.992 512.464,282.193 512.394,280.948C512.358,280.122 512.252,279.467 512.106,278.978C511.954,278.489 511.743,278.075 511.453,277.729C511.175,277.392 510.811,277.095 510.369,276.836C510.868,276.509 511.242,276.202 511.493,275.895C511.733,275.598 511.935,275.224 512.087,274.761C512.242,274.291 512.348,273.694 512.385,272.948C512.454,271.634 512.491,270.738 512.491,270.259C512.491,269.799 512.55,269.472 512.655,269.28C512.771,269.086 512.944,268.943 513.184,268.848C513.413,268.751 513.952,268.702 514.787,268.702L514.787,266.013L514.192,266.013C513.2,266.012 512.479,266.081 512.021,266.215Z" style="fill:rgb(161,169,214);fill-rule:nonzero;"/><path d="M532.802,278.19L532.802,275.492C532.111,275.453 531.6,275.3 531.265,275.039C530.929,274.781 530.681,274.349 530.506,273.753C530.39,273.33 530.334,272.438 530.334,271.064C530.334,269.875 530.275,269.009 530.143,268.463C530.008,267.904 529.757,267.436 529.393,267.059C529.028,266.686 528.566,266.419 528.028,266.253C527.482,266.102 526.703,266.012 525.695,266.012L525.09,266.012L525.09,268.701C525.945,268.701 526.492,268.76 526.732,268.856C526.983,268.961 527.155,269.105 527.241,269.287C527.337,269.48 527.386,269.854 527.396,270.413C527.433,272.208 527.502,273.359 527.578,273.889C527.703,274.646 527.952,275.281 528.298,275.78C528.556,276.126 528.96,276.47 529.518,276.837C529.085,277.075 528.738,277.366 528.46,277.701C528.183,278.016 527.971,278.421 527.809,278.891C527.643,279.361 527.539,279.986 527.502,280.762C527.442,282.061 527.403,282.933 527.403,283.396C527.396,283.855 527.337,284.182 527.221,284.375C527.105,284.566 526.923,284.711 526.676,284.816C526.425,284.913 525.896,284.959 525.09,284.959L525.09,287.668L525.695,287.668C526.676,287.668 527.403,287.602 527.856,287.467C528.537,287.266 529.065,286.988 529.422,286.641C529.776,286.294 530.018,285.826 530.143,285.249C530.276,284.662 530.344,283.644 530.344,282.193C530.344,281.3 530.371,280.676 530.44,280.322C530.516,279.841 530.662,279.437 530.863,279.121C531.055,278.807 531.295,278.574 531.573,278.44C531.85,278.304 532.254,278.218 532.811,278.191L532.802,278.191L532.802,278.19Z" style="fill:rgb(161,169,214);fill-rule:nonzero;"/><rect x="515.353" y="272.208" width="9.164" height="2.43" style="fill:rgb(161,169,214);"/><rect x="515.353" y="275.625" width="9.164" height="2.43" style="fill:rgb(161,169,214);"/><rect x="515.353" y="279.042" width="5.316" height="2.43" style="fill:rgb(161,169,214);"/></g><g id="XMLID_1047_"><path d="M448.285,255.16C447.724,255.44 446.606,255.72 445.17,255.72C441.846,255.72 439.344,253.621 439.344,249.755C439.344,246.063 441.846,243.561 445.503,243.561C446.973,243.561 447.899,243.876 448.301,244.086L447.934,245.328C447.356,245.049 446.534,244.839 445.555,244.839C442.79,244.839 440.953,246.606 440.953,249.702C440.953,252.589 442.616,254.443 445.485,254.443C446.412,254.443 447.357,254.251 447.969,253.953L448.285,255.16Z" style="fill:rgb(21,29,121);fill-rule:nonzero;"/><path d="M449.979,253.69C450.662,254.111 451.658,254.461 452.708,254.461C454.265,254.461 455.175,253.639 455.175,252.447C455.175,251.345 454.545,250.716 452.953,250.104C451.029,249.421 449.839,248.423 449.839,246.761C449.839,244.923 451.361,243.559 453.653,243.559C454.861,243.559 455.736,243.839 456.26,244.136L455.841,245.378C455.456,245.169 454.669,244.819 453.602,244.819C451.992,244.819 451.38,245.782 451.38,246.585C451.38,247.688 452.097,248.231 453.724,248.86C455.719,249.63 456.734,250.592 456.734,252.324C456.734,254.144 455.386,255.718 452.605,255.718C451.468,255.718 450.226,255.387 449.595,254.967L449.979,253.69Z" style="fill:rgb(21,29,121);fill-rule:nonzero;"/><path d="M458.602,253.69C459.284,254.111 460.282,254.461 461.331,254.461C462.888,254.461 463.798,253.639 463.798,252.447C463.798,251.345 463.168,250.716 461.576,250.104C459.651,249.421 458.462,248.423 458.462,246.761C458.462,244.923 459.984,243.559 462.275,243.559C463.482,243.559 464.358,243.839 464.881,244.136L464.462,245.378C464.077,245.169 463.29,244.819 462.223,244.819C460.613,244.819 460.001,245.782 460.001,246.585C460.001,247.688 460.718,248.231 462.345,248.86C464.339,249.63 465.354,250.592 465.354,252.324C465.354,254.144 464.007,255.718 461.226,255.718C460.088,255.718 458.846,255.387 458.216,254.967L458.602,253.69Z" style="fill:rgb(21,29,121);fill-rule:nonzero;"/><path d="M467.26,253.779C467.698,254.058 468.712,254.497 469.78,254.497C471.757,254.497 472.369,253.235 472.351,252.292C472.333,250.7 470.899,250.018 469.412,250.018L468.555,250.018L468.555,248.863L469.412,248.863C470.532,248.863 471.949,248.286 471.949,246.938C471.949,246.029 471.372,245.224 469.955,245.224C469.045,245.224 468.17,245.626 467.68,245.975L467.277,244.857C467.872,244.419 469.027,243.982 470.252,243.982C472.491,243.982 473.506,245.311 473.506,246.694C473.506,247.865 472.805,248.863 471.405,249.371L471.405,249.405C472.805,249.684 473.943,250.735 473.943,252.327C473.943,254.147 472.526,255.739 469.797,255.739C468.519,255.739 467.4,255.337 466.839,254.969L467.26,253.779Z" style="fill:rgb(21,29,121);fill-rule:nonzero;"/></g><g id="XMLID_870_"><path d="M500.173,325.974L500.173,331.221L506.238,331.221L506.238,325.974L507.874,325.974L507.874,338.513L506.238,338.513L506.238,332.635L500.173,332.635L500.173,338.513L498.554,338.513L498.554,325.974L500.173,325.974Z" style="fill:rgb(21,29,121);fill-rule:nonzero;"/><path d="M513.064,327.351L509.251,327.351L509.251,325.974L518.535,325.974L518.535,327.351L514.702,327.351L514.702,338.513L513.064,338.513L513.064,327.351Z" style="fill:rgb(21,29,121);fill-rule:nonzero;"/><path d="M530.496,333.006C530.403,331.258 530.292,329.155 530.31,327.592L530.254,327.592C529.825,329.063 529.305,330.625 528.672,332.355L526.458,338.439L525.229,338.439L523.202,332.468C522.606,330.699 522.104,329.08 521.75,327.592L521.713,327.592C521.677,329.155 521.583,331.258 521.472,333.136L521.136,338.513L519.591,338.513L520.466,325.974L522.532,325.974L524.673,332.039C525.193,333.583 525.621,334.96 525.937,336.262L525.993,336.262C526.309,334.997 526.756,333.62 527.314,332.039L529.546,325.974L531.612,325.974L532.392,338.513L530.811,338.513L530.496,333.006Z" style="fill:rgb(21,29,121);fill-rule:nonzero;"/><path d="M534.884,325.974L536.504,325.974L536.504,337.156L541.862,337.156L541.862,338.513L534.884,338.513L534.884,325.974Z" style="fill:rgb(21,29,121);fill-rule:nonzero;"/><path d="M550.307,327.797L545.692,327.797L545.227,330.904C545.506,330.866 545.767,330.829 546.213,330.829C547.144,330.829 548.073,331.034 548.818,331.48C549.767,332.02 550.548,333.062 550.548,334.588C550.548,336.949 548.669,338.718 546.046,338.718C544.726,338.718 543.608,338.345 543.032,337.974L543.442,336.727C543.943,337.024 544.93,337.397 546.027,337.397C547.571,337.397 548.892,336.391 548.892,334.774C548.873,333.211 547.831,332.094 545.413,332.094C544.725,332.094 544.184,332.168 543.739,332.224L544.521,326.419L550.307,326.419L550.307,327.797Z" style="fill:rgb(21,29,121);fill-rule:nonzero;"/></g><g><path d="M122.18,260.024L122.18,408.46C122.18,415.074 127.54,420.436 134.155,420.436L358.738,420.436C365.351,420.436 370.712,415.075 370.712,408.46L370.712,260.024C370.712,253.412 365.351,248.05 358.738,248.05L134.154,248.05C127.54,248.051 122.18,253.412 122.18,260.024Z" style="fill:rgb(65,52,236);fill-rule:nonzero;"/><path d="M131.936,260.024L131.936,408.46C131.936,415.074 137.296,420.436 143.909,420.436L368.493,420.436C375.106,420.436 380.467,415.075 380.467,408.46L380.467,260.024C380.467,253.412 375.106,248.05 368.493,248.05L143.909,248.05C137.296,248.051 131.936,253.412 131.936,260.024Z" style="fill:rgb(204,204,209);fill-rule:nonzero;"/><rect x="143.055" y="261.771" width="224.775" height="144.942" style="fill:url(#_Linear4);"/><path d="M476.203,428.564C476.203,424.076 472.565,420.439 468.077,420.439L249.908,420.439C243.739,420.439 238.692,424.09 238.692,428.558C238.692,433.037 243.739,436.69 249.908,436.69L468.077,436.69C472.565,436.69 476.203,433.053 476.203,428.564Z" style="fill:rgb(241,239,243);fill-rule:nonzero;"/><path d="M392.681,420.738L392.681,421.428C392.681,423.968 390.617,426.022 388.077,426.022L319.395,426.022C316.866,426.022 314.803,423.968 314.803,421.428L314.803,420.738L392.681,420.738Z" style="fill:rgb(65,52,236);fill-rule:nonzero;"/><path d="M263.055,428.559C263.055,433.038 259.117,436.691 254.295,436.691L142.518,436.691C137.704,436.691 133.766,433.039 133.766,428.559C133.766,424.091 137.704,420.44 142.518,420.44L254.295,420.44C259.117,420.439 263.055,424.091 263.055,428.559Z" style="fill:rgb(65,52,236);fill-rule:nonzero;"/></g><g><path id="XMLID_581_" d="M121.768,377.483L128.286,378.83L131.131,365.072L124.613,363.724C124.728,358.236 123.663,352.91 121.614,348.038L127.177,344.377L119.46,332.634L113.897,336.295C111.017,333.292 107.629,330.735 103.835,328.774C102.856,328.264 101.84,327.795 100.805,327.369C100.767,327.351 100.718,327.338 100.68,327.319L102.039,320.798L88.281,317.952L86.93,324.477C85.49,324.445 84.056,324.498 82.645,324.625C78.669,324.981 74.831,325.954 71.236,327.472L67.575,321.909L55.842,329.622L59.495,335.182C55.68,338.844 52.595,343.314 50.521,348.4L44.003,347.053L41.157,360.811L47.676,362.159C47.561,367.647 48.615,372.977 50.671,377.852L45.111,381.505L52.82,393.244L58.391,389.587C62.049,393.409 66.519,396.495 71.608,398.562L70.257,405.086L84.007,407.929L85.355,401.41C86.805,401.439 88.235,401.393 89.647,401.265C93.616,400.905 97.458,399.925 101.048,398.415L104.709,403.979L116.445,396.258L112.793,390.696C116.609,387.038 119.694,382.569 121.768,377.483ZM88.73,391.239C86.01,391.488 83.203,391.346 80.392,390.76C65.029,387.584 55.145,372.553 58.321,357.19C60.921,344.636 71.421,335.752 83.56,334.644C86.28,334.396 89.086,334.537 91.898,335.123C93.518,335.461 95.071,335.923 96.565,336.515C97.611,336.917 98.627,337.388 99.599,337.911C110.388,343.706 116.577,356.085 113.966,368.7C111.369,381.248 100.87,390.132 88.73,391.239ZM86.165,392.307C84.164,392.307 82.165,392.101 80.198,391.69C72.521,390.105 65.92,385.621 61.611,379.067C57.302,372.515 55.803,364.677 57.391,356.999C60.032,344.245 70.515,334.882 83.474,333.698C86.356,333.435 89.257,333.602 92.093,334.194C93.756,334.539 95.378,335.023 96.916,335.631C97.965,336.035 99.022,336.522 100.051,337.076C111.406,343.176 117.512,356.26 114.897,368.894C112.259,381.643 101.777,391.003 88.817,392.186C87.934,392.266 87.048,392.307 86.165,392.307ZM86.125,335.477C85.298,335.477 84.472,335.515 83.647,335.59C71.526,336.696 61.723,345.454 59.252,357.383C57.768,364.564 59.169,371.895 63.199,378.024C67.229,384.153 73.403,388.345 80.585,389.83C83.238,390.384 85.949,390.54 88.644,390.294C100.766,389.189 110.568,380.434 113.036,368.508C115.481,356.692 109.771,344.454 99.15,338.749C98.192,338.232 97.208,337.779 96.225,337.401C94.782,336.83 93.264,336.378 91.707,336.054C89.865,335.669 87.997,335.477 86.125,335.477Z" style="fill:rgb(21,29,121);fill-rule:nonzero;"/><rect x="27.326" y="376.89" width="17.304" height="58.34" style="fill:rgb(185,135,5);"/><path d="M16.959,386.998L34.263,386.998L44.629,376.89L27.326,376.89L16.959,386.998Z" style="fill:rgb(245,200,38);"/><rect x="44.629" y="376.89" width="86.272" height="58.34" style="fill:rgb(245,200,38);"/><path d="M141.268,386.998L54.995,386.998L44.629,376.89L130.901,376.89L141.268,386.998Z" style="fill:rgb(248,222,120);"/></g><g><path d="M451.008,377.04L459.774,368.404L482.548,391.519C484.91,393.916 484.881,397.774 482.484,400.135L482.396,400.221C479.999,402.582 476.142,402.554 473.781,400.157L451.008,377.04Z" style="fill:white;fill-rule:nonzero;"/><path d="M451.008,377.04L459.774,368.404L482.548,391.519C484.91,393.916 484.881,397.774 482.484,400.135L482.396,400.221C479.999,402.582 476.142,402.554 473.781,400.157L451.008,377.04Z" style="fill:white;fill-rule:nonzero;"/><path d="M456.319,389.772L472.439,373.891L514.32,416.401C518.663,420.808 518.61,427.902 514.201,432.245L514.04,432.404C509.632,436.745 502.54,436.692 498.198,432.284L456.319,389.772Z" style="fill:rgb(21,29,121);fill-rule:nonzero;"/><path d="M451.008,377.04L459.774,368.404L482.548,391.519C484.91,393.916 484.881,397.774 482.484,400.135L482.396,400.221C479.999,402.582 476.142,402.554 473.781,400.157L451.008,377.04Z" style="fill:rgb(204,204,209);fill-rule:nonzero;"/><path d="M456.319,389.772L472.439,373.891L514.32,416.401C518.663,420.808 518.61,427.902 514.201,432.245L514.04,432.404C509.632,436.745 502.54,436.692 498.198,432.284L456.319,389.772Z" style="fill:rgb(21,29,121);fill-rule:nonzero;"/><path d="M456.319,389.772L472.439,373.891L514.32,416.401C518.663,420.808 518.61,427.902 514.201,432.245L514.04,432.404C509.632,436.745 502.54,436.692 498.198,432.284L456.319,389.772Z" style="fill:rgb(21,29,121);fill-rule:nonzero;"/><path d="M374.25,339.562C374.113,353.409 379.904,366.142 389.31,375.203C397.071,382.7 407.304,387.68 418.684,388.71C419.998,388.821 421.354,388.884 422.658,388.887C429.362,388.962 435.858,387.702 441.978,385.162C442.972,384.743 443.952,384.284 444.909,383.806C447.608,382.449 450.173,380.848 452.596,379.013C454.285,377.716 455.91,376.312 457.432,374.821C458.904,373.368 460.29,371.828 461.535,370.222C468.298,361.707 471.923,351.41 472.027,340.479C472.144,327.415 467.173,315.101 458.006,305.764C449.858,297.477 439.048,292.354 427.58,291.311C426.256,291.207 424.922,291.112 423.574,291.111C410.518,290.996 398.143,296.02 388.823,305.2C379.523,314.353 374.332,326.555 374.25,339.562ZM394.737,311.208C402.481,303.584 412.694,299.444 423.493,299.537C424.597,299.561 425.724,299.609 426.808,299.702C436.321,300.563 445.244,304.827 451.975,311.692C459.578,319.397 463.704,329.59 463.584,340.386C463.483,351.121 459.203,361.212 451.516,368.809L450.796,369.494C449.446,370.734 448.028,371.885 446.567,372.923C439.536,377.922 431.288,380.531 422.725,380.467C421.63,380.443 420.537,380.41 419.448,380.289C407.812,379.237 397.632,373.202 390.951,364.425C385.685,357.495 382.59,348.87 382.676,339.641C382.793,328.862 387.073,318.772 394.737,311.208ZM423.035,381.418C422.931,381.418 422.826,381.418 422.72,381.417C421.58,381.392 420.476,381.359 419.344,381.233C407.891,380.198 397.261,374.28 390.198,365C384.571,357.596 381.641,348.823 381.727,339.633C381.847,328.605 386.23,318.27 394.07,310.531L394.071,310.53C401.991,302.731 412.425,298.483 423.502,298.587C424.838,298.617 425.91,298.671 426.891,298.757C436.61,299.636 445.758,303.993 452.653,311.028C460.436,318.914 464.656,329.345 464.534,340.397C464.43,351.385 460.045,361.716 452.184,369.486L451.451,370.183C450.051,371.47 448.597,372.648 447.117,373.698C440.01,378.75 431.688,381.418 423.035,381.418ZM395.404,311.884C387.924,319.268 383.74,329.13 383.626,339.652C383.545,348.416 386.34,356.784 391.709,363.85C398.449,372.707 408.591,378.355 419.534,379.343C420.607,379.462 421.666,379.493 422.747,379.517C422.846,379.518 422.947,379.518 423.046,379.518C431.291,379.519 439.231,376.973 446.017,372.148C447.433,371.144 448.823,370.017 450.153,368.795L450.861,368.121C458.35,360.72 462.535,350.861 462.634,340.378C462.75,329.835 458.724,319.885 451.298,312.36C444.716,305.645 435.989,301.487 426.722,300.649C425.786,300.567 424.751,300.515 423.471,300.486C423.355,300.485 423.237,300.485 423.122,300.485C412.715,300.485 402.88,304.525 395.404,311.884Z" style="fill:rgb(88,72,239);fill-rule:nonzero;"/></g><g><path d="M443.662,319.761L402.614,319.761C399.738,319.761 397.407,322.092 397.407,324.968L397.407,347.854C397.407,350.73 399.738,353.06 402.614,353.06L424.652,353.06L424.652,365.887L437.226,353.06L443.663,353.06C446.54,353.06 448.871,350.73 448.871,347.854L448.871,324.968C448.87,322.092 446.539,319.761 443.662,319.761Z" style="fill:rgb(21,29,121);fill-rule:nonzero;"/><path d="M412.972,342.37L407.021,336.42C406.682,336.08 406.682,335.527 407.021,335.187L412.808,329.402L414.041,330.635L408.872,335.804L414.206,341.139L412.972,342.37Z" style="fill:white;fill-rule:nonzero;"/><path d="M433.977,342.662L432.745,341.43L438.205,335.969L432.744,330.507L433.978,329.275L440.056,335.353C440.219,335.517 440.311,335.739 440.311,335.969C440.311,336.201 440.219,336.422 440.055,336.586L433.977,342.662Z" style="fill:white;fill-rule:nonzero;"/><g transform="matrix(0.9136,0.4066,-0.4066,0.9136,173.171,-143.335)"><rect x="423.047" y="324.316" width="1.744" height="23.142" style="fill:white;"/></g></g><g id="XMLID_1590_"><rect id="XMLID_1591_" x="94.409" y="200.476" width="109.884" height="27.61" style="fill:rgb(92,207,255);"/><g><path d="M110.389,207.684L111.898,207.684L111.898,215.503C111.898,218.606 110.372,219.561 108.36,219.561C107.805,219.561 107.129,219.439 106.748,219.283L106.973,218.052C107.285,218.174 107.736,218.279 108.24,218.279C109.592,218.279 110.389,217.672 110.389,215.383L110.389,207.684Z" style="fill:white;fill-rule:nonzero;"/><path d="M116.302,215.693L115.089,219.369L113.528,219.369L117.498,207.683L119.319,207.683L123.307,219.369L121.694,219.369L120.445,215.693L116.302,215.693ZM120.134,214.515L118.989,211.151C118.729,210.388 118.556,209.696 118.383,209.018L118.348,209.018C118.174,209.712 117.984,210.422 117.758,211.134L116.614,214.515L120.134,214.515Z" style="fill:white;fill-rule:nonzero;"/><path d="M126.671,219.369L122.857,207.683L124.486,207.683L126.307,213.439C126.809,215.017 127.243,216.439 127.555,217.807L127.589,217.807C127.919,216.455 128.404,214.983 128.924,213.455L130.901,207.683L132.513,207.683L128.335,219.369L126.671,219.369Z" style="fill:white;fill-rule:nonzero;"/><path d="M134.682,215.693L133.468,219.369L131.908,219.369L135.878,207.683L137.699,207.683L141.687,219.369L140.074,219.369L138.825,215.693L134.682,215.693ZM138.514,214.515L137.37,211.151C137.109,210.388 136.936,209.696 136.763,209.018L136.728,209.018C136.555,209.712 136.363,210.422 136.139,211.134L134.995,214.515L138.514,214.515Z" style="fill:white;fill-rule:nonzero;"/><path d="M143.196,217.53C143.872,217.947 144.861,218.294 145.9,218.294C147.444,218.294 148.345,217.479 148.345,216.301C148.345,215.208 147.721,214.584 146.143,213.977C144.237,213.3 143.057,212.313 143.057,210.665C143.057,208.845 144.565,207.492 146.837,207.492C148.033,207.492 148.9,207.768 149.42,208.064L149.004,209.295C148.623,209.087 147.841,208.74 146.785,208.74C145.189,208.74 144.582,209.694 144.582,210.49C144.582,211.583 145.293,212.121 146.905,212.744C148.882,213.508 149.888,214.462 149.888,216.179C149.888,217.982 148.553,219.541 145.797,219.541C144.669,219.541 143.439,219.213 142.814,218.796L143.196,217.53Z" style="fill:white;fill-rule:nonzero;"/><path d="M160.118,218.987C159.564,219.265 158.454,219.542 157.033,219.542C153.739,219.542 151.26,217.462 151.26,213.631C151.26,209.972 153.739,207.492 157.363,207.492C158.82,207.492 159.738,207.805 160.138,208.012L159.773,209.243C159.201,208.967 158.386,208.758 157.415,208.758C154.676,208.758 152.855,210.51 152.855,213.578C152.855,216.439 154.501,218.277 157.345,218.277C158.264,218.277 159.2,218.085 159.807,217.792L160.118,218.987Z" style="fill:white;fill-rule:nonzero;"/><path d="M162.008,207.84C162.771,207.684 163.863,207.597 164.904,207.597C166.515,207.597 167.557,207.892 168.286,208.55C168.875,209.07 169.204,209.867 169.204,210.77C169.204,212.313 168.233,213.335 167.002,213.751L167.002,213.803C167.903,214.115 168.44,214.949 168.718,216.161C169.099,217.792 169.377,218.919 169.619,219.369L168.058,219.369C167.869,219.039 167.607,218.034 167.278,216.577C166.931,214.965 166.308,214.357 164.937,214.306L163.516,214.306L163.516,219.369L162.007,219.369L162.007,207.84L162.008,207.84ZM163.517,213.162L165.059,213.162C166.671,213.162 167.695,212.277 167.695,210.942C167.695,209.434 166.602,208.774 165.007,208.757C164.278,208.757 163.758,208.826 163.516,208.897L163.516,213.162L163.517,213.162Z" style="fill:white;fill-rule:nonzero;"/><rect x="171.337" y="207.684" width="1.507" height="11.686" style="fill:white;fill-rule:nonzero;"/><path d="M175.481,207.822C176.209,207.7 177.163,207.596 178.377,207.596C179.868,207.596 180.96,207.943 181.655,208.566C182.296,209.122 182.677,209.971 182.677,211.012C182.677,212.069 182.365,212.902 181.776,213.508C180.978,214.357 179.678,214.791 178.204,214.791C177.754,214.791 177.337,214.774 176.99,214.687L176.99,219.368L175.482,219.368L175.482,207.822L175.481,207.822ZM176.989,213.456C177.319,213.543 177.735,213.578 178.238,213.578C180.058,213.578 181.168,212.693 181.168,211.081C181.168,209.538 180.075,208.793 178.412,208.793C177.753,208.793 177.25,208.845 176.99,208.914L176.99,213.456L176.989,213.456Z" style="fill:white;fill-rule:nonzero;"/><path d="M186.925,208.967L183.37,208.967L183.37,207.684L192.022,207.684L192.022,208.967L188.45,208.967L188.45,219.369L186.925,219.369L186.925,208.967Z" style="fill:white;fill-rule:nonzero;"/></g></g><path d="M60.26,177.239C56.286,177.239 52.553,175.801 49.748,173.192C47.928,171.502 45.5,170.57 42.91,170.57C40.32,170.57 37.893,171.502 36.074,173.192C35.022,174.167 33.233,174.1 32.257,173.053C31.245,171.961 31.307,170.25 32.395,169.237C35.204,166.628 38.937,165.19 42.909,165.19C46.881,165.19 50.616,166.628 53.424,169.237C55.243,170.927 57.672,171.859 60.261,171.859C62.851,171.859 65.28,170.927 67.1,169.237C69.908,166.628 73.641,165.191 77.611,165.191C81.584,165.191 85.318,166.628 88.126,169.237C89.944,170.927 92.372,171.859 94.961,171.859C97.551,171.859 99.981,170.927 101.8,169.237C104.607,166.628 108.34,165.19 112.312,165.19C116.284,165.19 120.018,166.628 122.825,169.237C123.915,170.251 123.977,171.963 122.964,173.052C121.986,174.104 120.196,174.166 119.148,173.192C117.328,171.502 114.901,170.57 112.311,170.57C109.722,170.57 107.294,171.501 105.477,173.192C102.667,175.8 98.934,177.238 94.961,177.238C90.989,177.238 87.256,175.801 84.45,173.192C82.63,171.502 80.202,170.57 77.613,170.57C75.023,170.57 72.595,171.502 70.776,173.192C67.965,175.802 64.231,177.239 60.26,177.239ZM42.91,168.671C45.982,168.671 48.868,169.782 51.041,171.801C53.495,174.083 56.769,175.339 60.26,175.339C63.75,175.339 67.025,174.082 69.482,171.801C71.653,169.782 74.542,168.671 77.612,168.671C80.682,168.671 83.57,169.782 85.743,171.801C88.197,174.082 91.471,175.338 94.96,175.338C98.451,175.338 101.728,174.082 104.184,171.801C106.354,169.782 109.241,168.671 112.312,168.671C115.384,168.671 118.272,169.782 120.443,171.801C120.756,172.093 121.282,172.073 121.575,171.759C121.873,171.438 121.856,170.93 121.532,170.629C119.078,168.348 115.804,167.091 112.313,167.091C108.823,167.091 105.549,168.348 103.095,170.629C100.922,172.648 98.032,173.759 94.962,173.759C91.892,173.759 89.004,172.648 86.833,170.629C84.376,168.348 81.103,167.092 77.611,167.092C74.122,167.092 70.848,168.348 68.393,170.629C66.22,172.648 63.332,173.759 60.261,173.759C57.19,173.759 54.303,172.648 52.131,170.629C49.675,168.348 46.401,167.091 42.909,167.091C39.419,167.091 36.145,168.348 33.689,170.629C33.367,170.929 33.348,171.438 33.649,171.76C33.937,172.07 34.466,172.091 34.781,171.8C36.952,169.782 39.839,168.671 42.91,168.671Z" style="fill:rgb(161,169,214);fill-rule:nonzero;"/><path d="M416.499,194.629C412.526,194.629 408.792,193.191 405.988,190.582C404.168,188.892 401.739,187.96 399.149,187.96C396.56,187.96 394.132,188.892 392.314,190.582C391.261,191.557 389.472,191.49 388.497,190.443C387.484,189.351 387.547,187.639 388.635,186.627C391.444,184.018 395.177,182.58 399.149,182.58C403.12,182.58 406.855,184.018 409.663,186.627C411.482,188.317 413.91,189.249 416.499,189.249C419.089,189.249 421.518,188.317 423.338,186.627C426.145,184.018 429.879,182.581 433.85,182.581C437.822,182.581 441.557,184.018 444.364,186.627C446.182,188.317 448.611,189.249 451.199,189.249C453.789,189.249 456.219,188.317 458.039,186.627C460.846,184.018 464.579,182.58 468.551,182.58C472.523,182.58 476.256,184.018 479.063,186.627C480.154,187.641 480.216,189.353 479.203,190.442C478.225,191.494 476.434,191.556 475.386,190.582C473.567,188.892 471.139,187.96 468.549,187.96C465.96,187.96 463.533,188.891 461.716,190.582C458.906,193.19 455.172,194.628 451.199,194.628C447.228,194.628 443.495,193.191 440.688,190.582C438.869,188.892 436.44,187.96 433.851,187.96C431.261,187.96 428.833,188.892 427.014,190.582C424.205,193.191 420.47,194.629 416.499,194.629ZM399.148,186.06C402.22,186.06 405.108,187.172 407.28,189.191C409.733,191.473 413.007,192.729 416.498,192.729C419.988,192.729 423.263,191.472 425.72,189.191C427.893,187.172 430.78,186.06 433.85,186.06C436.92,186.06 439.808,187.172 441.981,189.191C444.435,191.472 447.709,192.728 451.199,192.728C454.69,192.728 457.966,191.472 460.423,189.191C462.592,187.172 465.479,186.06 468.55,186.06C471.622,186.06 474.51,187.172 476.681,189.191C476.994,189.483 477.52,189.463 477.813,189.149C478.112,188.827 478.095,188.32 477.77,188.019C475.317,185.738 472.042,184.481 468.552,184.481C465.062,184.481 461.788,185.738 459.334,188.019C457.159,190.038 454.271,191.149 451.199,191.149C448.128,191.149 445.242,190.038 443.071,188.019C440.615,185.738 437.341,184.482 433.85,184.482C430.36,184.482 427.086,185.738 424.631,188.019C422.458,190.038 419.57,191.149 416.499,191.149C413.428,191.149 410.541,190.038 408.37,188.019C405.913,185.738 402.639,184.481 399.148,184.481C395.657,184.481 392.383,185.738 389.928,188.019C389.605,188.319 389.587,188.827 389.887,189.15C390.175,189.46 390.704,189.481 391.019,189.19C393.19,187.172 396.078,186.06 399.148,186.06Z" style="fill:rgb(161,169,214);fill-rule:nonzero;"/><g><path d="M193.293,417.42C196.665,417.247 198.36,413.503 198.776,413.472C198.88,413.465 199.005,413.37 199.165,413.733C199.619,414.764 198.535,416.843 198.06,417.289C199.366,417.909 199.758,418.126 201.284,418.664C203.601,419.48 205.324,420.138 204.097,423.245C203.411,424.98 201.117,425.612 200.975,425.774C200.848,425.92 200.287,425.904 200.094,425.91C199.396,425.931 198.633,425.886 197.111,424.539C196.589,424.077 193.757,422.5 192.29,421.927L193.293,417.42Z" style="fill:rgb(247,157,86);fill-rule:nonzero;"/><path d="M160.055,400.658C161.461,405.339 164.187,408.585 169.368,416.875C171.242,419.875 184.261,420.289 193.328,422.295L194.208,417.359L175.317,412.671C175.317,412.671 167.442,396.265 162.651,395.044C160.515,394.5 158.431,395.256 160.055,400.658Z" style="fill:rgb(238,109,50);fill-rule:nonzero;"/><path d="M136.817,481.891C136.859,481.859 136.926,481.839 136.982,481.815C138.946,478.723 137.772,469.593 141.317,464.095C145.428,457.719 144.922,449.874 144.922,443.768L158.443,438.76C158.443,445.71 151.016,459.822 147.92,467.467C143.937,477.302 140.993,480.79 141.863,485.614C143.059,488.026 144.829,491.036 147.04,492.296C147.406,492.504 146.653,493.803 144.303,493.232C139.996,492.183 141.303,487.996 137.547,485.996C134.867,484.566 135.648,482.755 136.817,481.891Z" style="fill:rgb(247,157,86);fill-rule:nonzero;"/><path d="M172.687,427.256C177.247,429.57 187.335,439.59 187.562,440.394C187.789,441.201 187.674,442.064 187.245,442.783C187.245,442.783 171.232,462.182 170.379,465.793C171.226,468.511 171.973,472.584 173.327,474.066C173.611,474.377 172.497,475.381 170.434,474.115C166.658,471.796 168.774,469.563 166.386,466.04C163.607,461.94 166.102,461.943 167.619,461.587C170.885,458.35 172.227,446.691 177.136,442.113C177.136,442.113 165.38,437.952 161.991,434.319C159.524,431.672 169.641,425.711 172.687,427.256Z" style="fill:rgb(247,157,86);fill-rule:nonzero;"/><path d="M144.833,361.851C150.277,360.682 153.158,363.637 153.158,363.637C169.742,361.088 172.858,384.775 165.303,390.679C159.183,395.463 154.073,392.164 154.073,392.164C154.073,392.164 150.62,394.741 145.331,395.554C142.058,396.057 138.104,393.908 138.104,393.908C138.104,393.908 133.477,397.215 129.93,392.322C126.383,387.429 131.629,382.241 134.416,382.191C134.416,382.191 131.078,378.171 135.654,375.503C137.458,374.451 134.434,364.082 144.833,361.851Z" style="fill:rgb(21,29,121);fill-rule:nonzero;"/><path d="M144.998,372.688C145.859,370.296 147.603,368.216 150.054,366.985C151.674,366.169 153.407,365.822 155.099,365.893C158.71,366.043 162.133,368.096 163.872,371.552L165.691,375.167C167.364,378.493 166.212,382.243 165.053,385.514C163.984,388.528 161.426,389.601 158.799,389.751L158.833,391.447L158.874,393.5C160.576,393.799 162.116,394.58 163.183,395.818C164.518,397.365 163.616,399.059 162.498,399.625C159.476,400.783 153.194,398.332 152.27,395.471C152.527,395.169 152.816,394.899 153.126,394.653C153.118,394.605 153.112,394.557 153.134,394.507C153.695,393.217 153.517,390.327 153.393,388.955C152.968,388.807 152.583,388.651 152.27,388.497C150.334,387.542 148.348,386.495 147.303,384.418L145.485,380.803C144.164,378.176 144.073,375.253 144.998,372.688Z" style="fill:rgb(247,157,86);fill-rule:nonzero;"/><path d="M149.757,378.331C157.142,379.532 157.954,371.571 157.533,368.297C156.653,361.446 147.705,362.766 144.576,366.174C142.636,368.285 139.19,374.006 140.676,381.112C142.162,388.218 149.414,392.634 149.414,392.634C157.384,386.791 149.149,381.194 149.149,381.194L149.757,378.331Z" style="fill:rgb(21,29,121);fill-rule:nonzero;"/><path d="M158.314,384.209C159.175,385.339 160.741,385.734 162.057,385.073C163.371,384.411 163.987,382.918 163.593,381.553L158.314,384.209Z" style="fill:rgb(255,254,255);fill-rule:nonzero;"/><path d="M148.553,420.732C152.266,415.559 150.926,408.602 150.832,399.112C150.819,397.718 151.435,396.459 152.266,395.466C154.625,395.211 158.794,397.128 161.246,397.235C162.372,397.289 163.123,396.967 163.177,395.881C163.19,395.868 163.19,395.84 163.19,395.815C163.277,395.902 163.359,396.013 163.442,396.119C163.447,396.127 163.453,396.131 163.458,396.136C163.498,396.191 163.539,396.231 163.579,396.284C165.027,398.013 168.284,399.728 169.021,401.485C169.798,403.32 168.136,405.144 166.046,405.734C165.415,411.028 163.03,417.301 167.466,420.478C171.634,423.44 175.24,428.037 175.24,428.037C162.774,442.112 144.049,445.959 144.049,445.959C145.404,440.973 141.718,430.249 148.553,420.732Z" style="fill:rgb(238,109,50);fill-rule:nonzero;"/><path d="M136.424,481.2C137.871,482.291 140.722,489.593 142.052,491.663C143.142,493.431 146.337,492.656 146.06,491.069C147.47,492.941 150.289,493.596 150.031,495.394C149.833,496.755 145.843,496.701 144.635,496.611C142.005,496.465 141.289,494.296 140.723,491.789C140.077,488.926 138.421,487.294 137.485,486.435C137.614,488.151 137.424,492.381 137.526,493.723L137.068,493.723C136.914,491.128 136.594,488.696 135.739,486.107C135.129,484.256 135.347,482.642 136.424,481.2Z" style="fill:rgb(21,29,121);fill-rule:nonzero;"/><path d="M165.707,461.378C166.942,462.762 168.227,470.366 169.124,472.648C169.845,474.586 173.286,474.624 173.356,473.053C174.38,475.166 177.118,476.468 176.45,478.108C175.944,479.351 171.876,478.334 170.659,477.96C168.002,477.186 167.755,474.958 167.737,472.447C167.716,469.578 166.387,467.633 165.623,466.593C165.372,468.25 164.23,472.211 164.036,473.507L163.568,473.396C163.99,470.902 164.206,468.52 163.91,465.861C163.698,463.96 164.281,462.484 165.707,461.378Z" style="fill:rgb(21,29,121);fill-rule:nonzero;"/><path d="M184.607,418.737C187.631,418.487 189.051,415.075 189.424,415.035C189.517,415.024 189.627,414.936 189.781,415.259C190.217,416.172 189.301,418.072 188.887,418.486C190.078,419.006 192.047,418.874 193.469,420.164C194.233,420.855 193.504,421.908 193.363,422.088C192.328,423.411 190.523,425.619 190.3,425.892C190.19,426.028 190.003,426.068 189.828,426.08C189.202,426.118 188.515,426.1 187.11,424.932C186.628,424.531 185.166,423.29 183.832,422.817L184.607,418.737Z" style="fill:rgb(247,157,86);fill-rule:nonzero;"/><g><path d="M163.67,418.3C163.67,418.89 164.189,419.37 164.823,419.37L188.525,419.37C189.159,419.37 189.677,418.89 189.677,418.3C189.677,417.712 189.158,417.232 188.525,417.232L164.823,417.232C164.188,417.231 163.67,417.712 163.67,418.3Z" style="fill:rgb(38,26,171);fill-rule:nonzero;"/><path d="M213.976,396.114L213.976,415.654C213.976,416.524 213.27,417.23 212.4,417.23L182.836,417.23C181.965,417.23 181.26,416.524 181.26,415.654L181.26,396.114C181.26,395.244 181.965,394.538 182.836,394.538L212.4,394.538C213.27,394.538 213.976,395.244 213.976,396.114Z" style="fill:rgb(21,29,121);fill-rule:nonzero;"/><path d="M183.027,418.3C183.027,417.71 183.506,417.232 184.096,417.232L212.816,417.232C213.629,417.232 213.975,417.712 213.975,418.3C213.975,418.89 213.629,419.37 212.816,419.37L184.096,419.37C183.507,419.37 183.027,418.892 183.027,418.3Z" style="fill:rgb(65,52,236);fill-rule:nonzero;"/></g><path d="M167.957,413.172C167.957,413.172 160.869,404.764 158.359,399.404L151.684,401.508C151.762,407.035 158.071,410.255 162.103,417.088C163.841,420.033 176.412,420.753 185.124,422.912L186.097,418.164L167.957,413.172Z" style="fill:rgb(238,109,50);fill-rule:nonzero;"/></g></g></g></g><defs><linearGradient id="_Linear1" x1="0" y1="0" x2="1" y2="0" gradientUnits="userSpaceOnUse" gradientTransform="matrix(73.6065,0,0,73.6065,504.148,395.222)"><stop offset="0" style="stop-color:rgb(255,202,2);stop-opacity:1"/><stop offset="1" style="stop-color:rgb(240,59,154);stop-opacity:1"/></linearGradient><linearGradient id="_Linear2" x1="0" y1="0" x2="1" y2="0" gradientUnits="userSpaceOnUse" gradientTransform="matrix(44.5044,0,0,44.5044,520.157,400.9)"><stop offset="0" style="stop-color:rgb(255,202,2);stop-opacity:1"/><stop offset="0.24" style="stop-color:rgb(250,154,53);stop-opacity:1"/><stop offset="0.48" style="stop-color:rgb(246,113,96);stop-opacity:1"/><stop offset="0.69" style="stop-color:rgb(243,84,128);stop-opacity:1"/><stop offset="0.87" style="stop-color:rgb(241,65,147);stop-opacity:1"/><stop offset="1" style="stop-color:rgb(240,59,154);stop-opacity:1"/></linearGradient><linearGradient id="_Linear3" x1="0" y1="0" x2="1" y2="0" gradientUnits="userSpaceOnUse" gradientTransform="matrix(21.5493,0,0,21.5493,531.635,429.58)"><stop offset="0" style="stop-color:rgb(150,74,226);stop-opacity:1"/><stop offset="1" style="stop-color:rgb(3,255,255);stop-opacity:1"/></linearGradient><linearGradient id="_Linear4" x1="0" y1="0" x2="1" y2="0" gradientUnits="userSpaceOnUse" gradientTransform="matrix(224.775,0,0,224.775,143.055,334.242)"><stop offset="0" style="stop-color:rgb(246,199,38);stop-opacity:1"/><stop offset="1" style="stop-color:rgb(233,76,4);stop-opacity:1"/></linearGradient></defs></svg>