<?xml version="1.0" encoding="UTF-8" standalone="no"?>
<!DOCTYPE svg PUBLIC "-//W3C//DTD SVG 1.1//EN" "http://www.w3.org/Graphics/SVG/1.1/DTD/svg11.dtd">
<svg width="100%" height="100%" viewBox="0 0 534 535" version="1.1" xmlns="http://www.w3.org/2000/svg" xmlns:xlink="http://www.w3.org/1999/xlink" xml:space="preserve" xmlns:serif="http://www.serif.com/" style="fill-rule:evenodd;clip-rule:evenodd;stroke-linejoin:round;stroke-miterlimit:1.41421;">
    <g transform="matrix(1,0,0,1,-96.0368,0)">
        <g transform="matrix(4.16667,0,0,4.16667,96.0368,-3.125)">
            <g>
                <g>
                    <path d="M82.591,104.75L94.59,128.75L106.591,104.75L82.591,104.75Z" style="fill:rgb(97,98,98);fill-rule:nonzero;"/>
                    <path d="M95,129L95,127.932L103.091,111.75L103.625,111.75L95,129Z" style="fill:rgb(235,235,236);fill-rule:nonzero;"/>
                    <g>
                        <g>
                            <path d="M95,127.932L95,111.75L103.091,111.75L95,127.932Z" style="fill:rgb(131,132,133);fill-rule:nonzero;"/>
                            <path d="M107,45.25L128,34.75L107,24.25L107,45.25Z" style="fill:rgb(97,98,98);fill-rule:nonzero;"/>
                            <path d="M113,34.804L113,27.25L128,34.75L113,34.804Z" style="fill:rgb(131,132,133);fill-rule:nonzero;"/>
                            <path d="M107,75.25L128,64.75L107,54.25L107,75.25Z" style="fill:rgb(97,98,98);fill-rule:nonzero;"/>
                            <path d="M113,64.805L113,57.251L128,64.75L113,64.805Z" style="fill:rgb(131,132,133);fill-rule:nonzero;"/>
                            <path d="M107,103.25L128,92.75L107,82.25L107,103.25Z" style="fill:rgb(97,98,98);fill-rule:nonzero;"/>
                            <path d="M113,92.804L113,85.25L128,92.75L113,92.804Z" style="fill:rgb(131,132,133);fill-rule:nonzero;"/>
                            <rect x="16" y="6.75" width="97" height="101" style="fill:rgb(118,117,118);fill-rule:nonzero;"/>
                            <rect x="16" y="6.75" width="97" height="31" style="fill:rgb(153,153,153);fill-rule:nonzero;"/>
                            <path d="M21.909,107.75L16,107.75L16,100.75L16,107.75L21.909,107.75Z" style="fill:rgb(200,200,200);fill-rule:nonzero;"/>
                            <path d="M16,84.75L16,72.75L16,84.75ZM16,56.75L16,42.75L16,56.75Z" style="fill:rgb(200,200,200);fill-rule:nonzero;"/>
                            <path d="M16,42.75L16,37.75L16,42.75Z" style="fill:rgb(76,76,77);fill-rule:nonzero;"/>
                            <path d="M16,72.751L16,72.75L16,64.808L16,72.751ZM16,56.751L16,56.75L16,56.751Z" style="fill:rgb(76,76,77);fill-rule:nonzero;"/>
                            <path d="M16,64.808L16,56.751L16,64.808Z" style="fill:rgb(104,104,104);fill-rule:nonzero;"/>
                            <path d="M16,100.75L16,92.808L16,100.75Z" style="fill:rgb(76,76,77);fill-rule:nonzero;"/>
                            <path d="M16,92.808L16,84.75L16,92.808Z" style="fill:rgb(104,104,104);fill-rule:nonzero;"/>
                            <path d="M109,107.75L105.091,107.75L84.091,107.75L73.454,107.75L52.455,107.75L42.909,107.75L21.909,107.75L16,107.75L16,100.75L16,92.808L16,84.75L16,72.751L16,64.808L16,56.751L16,56.75L16,42.75L16,37.75L19.999,37.75L19.999,103.75L109,103.75L109,107.75Z" style="fill:rgb(93,93,93);fill-rule:nonzero;"/>
                            <path d="M19.999,37.75L16,37.75L16,10.75L19.999,10.75L19.999,17.894L18,20.75L19.999,24.749L19.999,37.75Z" style="fill:rgb(121,121,121);fill-rule:nonzero;"/>
                            <rect x="109" y="37.75" width="4" height="70" style="fill:rgb(136,136,137);fill-rule:nonzero;"/>
                            <path d="M113,37.75L109,37.75L109,21.417L110,20.75L109,19.322L109,10.75L103,10.75L100.2,6.75L113,6.75L113,37.75ZM89,10.75L71,10.75L68.2,6.75L91.8,6.75L89,10.75ZM57,10.75L39,10.75L36.2,6.75L59.8,6.75L57,10.75ZM25,10.75L19.999,10.75L16,10.75L16,6.75L27.8,6.75L25,10.75Z" style="fill:rgb(167,167,167);fill-rule:nonzero;"/>
                            <path d="M89,34.75L82,20.75L96,28.75L109,21.322L109,21.417L89,34.75Z" style="fill:rgb(134,134,134);fill-rule:nonzero;"/>
                            <path d="M109,21.417L109,21.322L110,20.75L109,21.417Z" style="fill:rgb(147,147,147);fill-rule:nonzero;"/>
                            <path d="M57,34.75L50,20.75L64,28.75L78,20.75L57,34.75Z" style="fill:rgb(134,134,134);fill-rule:nonzero;"/>
                            <path d="M25,34.75L19.999,24.749L19.999,21.893L32,28.75L46,20.75L25,34.75Z" style="fill:rgb(134,134,134);fill-rule:nonzero;"/>
                            <path d="M19.999,24.749L18,20.75L19.999,21.893L19.999,24.749Z" style="fill:rgb(105,105,105);fill-rule:nonzero;"/>
                            <path d="M87.307,90.141C87.304,90.095 87.3,90.05 87.297,90.004L87.305,89.966C87.719,87.754 87.773,85.482 87.781,83.224C87.79,80.798 87.747,78.374 87.652,75.95C87.606,74.763 87.546,73.574 87.353,72.406C87.072,70.706 86.51,69.081 85.952,67.466C85.007,64.733 84.057,61.99 82.784,59.424C81.756,57.356 80.514,55.419 79.097,53.653C76.605,50.548 73.575,47.968 70.216,46.104C69.386,45.644 68.473,45.086 67.541,44.756C67.352,44.759 67.168,44.77 66.993,44.801C67.189,44.766 67.396,44.751 67.61,44.751C69.107,44.751 70.955,45.521 72.261,46.016C74.12,46.72 75.902,47.669 77.561,48.83C80.931,51.187 83.804,54.427 85.777,58.259C86.996,60.627 87.884,63.191 88.521,65.822C90.452,73.798 90.02,82.447 87.307,90.141ZM86.01,79.122C86.01,79.12 86.01,79.117 86.009,79.115C86.01,79.117 86.01,79.12 86.01,79.122ZM86.003,79.079C86.002,79.072 86,79.065 85.999,79.057C86,79.064 86.002,79.072 86.003,79.079ZM85.995,79.037C85.993,79.022 85.99,79.008 85.988,78.994C85.99,79.008 85.993,79.022 85.995,79.037ZM85.813,78.049C84.911,73.332 83.564,68.718 81.809,64.302C80.846,61.88 79.783,59.471 78.544,57.204C79.783,59.471 80.846,61.879 81.809,64.302C83.564,68.718 84.911,73.332 85.813,78.049ZM73.308,49.56C72.273,48.482 71.129,47.534 69.887,46.764C71.129,47.534 72.273,48.482 73.308,49.56Z" style="fill:rgb(54,54,54);fill-rule:nonzero;"/>
                            <path d="M87.296,90.007C87.024,86.358 86.644,82.715 86.01,79.122C86.644,82.714 87.025,86.356 87.297,90.004L87.296,90.007ZM86.009,79.115C86.007,79.103 86.005,79.091 86.003,79.079C86.005,79.091 86.007,79.103 86.009,79.115ZM85.999,79.057C85.998,79.05 85.997,79.043 85.995,79.037C85.997,79.043 85.998,79.05 85.999,79.057ZM69.887,46.764C69.02,46.227 67.501,45.779 66.984,44.802C67.501,45.779 69.02,46.226 69.887,46.764ZM66.984,44.802C66.987,44.802 66.99,44.801 66.993,44.801C66.99,44.801 66.987,44.802 66.984,44.802Z" style="fill:rgb(180,180,181);fill-rule:nonzero;"/>
                            <path d="M87.297,90.004C87.025,86.356 86.644,82.714 86.01,79.122C86.01,79.12 86.01,79.117 86.009,79.115C86.007,79.103 86.005,79.091 86.003,79.079C86.002,79.072 86,79.064 85.999,79.057C85.998,79.05 85.997,79.043 85.995,79.037C85.993,79.022 85.99,79.008 85.988,78.994C85.932,78.678 85.873,78.363 85.813,78.049C84.911,73.332 83.564,68.718 81.809,64.302C80.846,61.879 79.783,59.471 78.544,57.204C77.052,54.474 75.43,51.776 73.32,49.573C73.316,49.569 73.312,49.565 73.308,49.56C72.273,48.482 71.129,47.534 69.887,46.764C69.02,46.226 67.501,45.779 66.984,44.802C66.987,44.802 66.99,44.801 66.993,44.801C67.168,44.77 67.352,44.759 67.541,44.756C68.473,45.086 69.386,45.644 70.216,46.104C73.575,47.968 76.605,50.548 79.097,53.653C80.514,55.419 81.756,57.356 82.784,59.424C84.057,61.99 85.007,64.733 85.952,67.466C86.51,69.081 87.072,70.706 87.353,72.406C87.546,73.574 87.606,74.763 87.652,75.95C87.747,78.374 87.79,80.798 87.781,83.224C87.773,85.482 87.719,87.754 87.305,89.966L87.297,90.004Z" style="fill:rgb(147,147,147);fill-rule:nonzero;"/>
                            <path d="M95.021,54.465L74.254,69.722C74.254,69.722 96.07,83.13 95.021,54.465Z" style="fill:white;fill-rule:nonzero;"/>
                            <path d="M93.376,62.325C93.258,62.415 93.193,62.568 93.144,62.717C92.974,63.241 92.893,63.898 92.435,64.132C91.984,64.363 91.458,64.014 90.962,64.076C91.001,64.656 90.942,65.265 90.672,65.766C90.404,66.267 89.893,66.637 89.367,66.585C89.875,66.817 90.431,66.919 90.98,66.88C91.079,66.873 91.182,66.86 91.262,66.797C91.371,66.714 91.414,66.566 91.471,66.436C91.685,65.957 92.195,65.663 92.673,65.743C92.817,65.766 92.965,65.82 93.104,65.772C93.429,65.659 93.42,65.139 93.639,64.851C93.76,64.692 93.938,64.626 94.128,64.595C94.334,63.834 94.51,63.008 94.652,62.113C94.141,62.096 93.621,62.139 93.376,62.325Z" style="fill:rgb(238,42,47);fill-rule:nonzero;"/>
                            <path d="M89.089,58.822C89.186,59.029 89.305,59.226 89.345,59.452C89.398,59.753 89.301,60.059 89.206,60.346C89.084,60.71 88.963,61.074 88.842,61.438C89.231,61.4 89.622,61.386 90.012,61.396C90.035,60.829 90.058,60.262 90.082,59.695C90.085,59.601 90.091,59.501 90.14,59.425L90.355,59.27C90.686,59.122 91.017,58.974 91.348,58.825C91.236,58.189 91.351,57.519 91.634,56.953L89.089,58.822Z" style="fill:rgb(238,42,47);fill-rule:nonzero;"/>
                            <path d="M89.37,66.281C89.37,69.67 86.62,72.42 83.23,72.42C80.27,72.42 77.8,70.321 77.23,67.531L80.13,65.4L83.3,63.07L86.209,60.931C88.1,61.97 89.37,63.98 89.37,66.281Z" style="fill:rgb(238,42,47);fill-rule:nonzero;"/>
                            <path d="M86.45,66.281C86.45,68.06 85.01,69.5 83.23,69.5C81.45,69.5 80.01,68.06 80.01,66.281C80.01,65.97 80.05,65.681 80.13,65.4L83.3,63.07C85.05,63.11 86.45,64.53 86.45,66.281Z" style="fill:rgb(255,243,0);fill-rule:nonzero;"/>
                            <path d="M36.248,54.465L57.015,69.722C57.015,69.722 35.199,83.13 36.248,54.465Z" style="fill:white;fill-rule:nonzero;"/>
                            <path d="M37.893,62.325C38.011,62.415 38.077,62.568 38.125,62.717C38.295,63.241 38.376,63.898 38.833,64.132C39.286,64.363 39.812,64.014 40.307,64.076C40.268,64.656 40.328,65.265 40.597,65.766C40.866,66.267 41.376,66.637 41.902,66.585C41.395,66.817 40.838,66.919 40.289,66.88C40.19,66.873 40.087,66.86 40.007,66.797C39.899,66.714 39.856,66.566 39.798,66.436C39.584,65.957 39.074,65.663 38.596,65.743C38.452,65.766 38.303,65.82 38.165,65.772C37.84,65.659 37.849,65.139 37.629,64.851C37.509,64.692 37.331,64.626 37.141,64.595C36.935,63.834 36.759,63.008 36.618,62.113C37.128,62.096 37.648,62.139 37.893,62.325Z" style="fill:rgb(238,42,47);fill-rule:nonzero;"/>
                            <path d="M42.18,58.822C42.083,59.029 41.964,59.226 41.924,59.452C41.871,59.753 41.968,60.059 42.063,60.346C42.185,60.71 42.306,61.074 42.427,61.438C42.039,61.4 41.647,61.386 41.257,61.396C41.234,60.829 41.211,60.262 41.187,59.695C41.184,59.601 41.178,59.501 41.129,59.425L40.914,59.27C40.583,59.122 40.252,58.974 39.92,58.825C40.034,58.189 39.918,57.519 39.635,56.953L42.18,58.822Z" style="fill:rgb(238,42,47);fill-rule:nonzero;"/>
                            <path d="M41.899,66.281C41.899,69.67 44.649,72.42 48.04,72.42C51,72.42 53.469,70.321 54.04,67.531L51.139,65.4L47.969,63.07L45.059,60.931C43.169,61.97 41.899,63.98 41.899,66.281Z" style="fill:rgb(238,42,47);fill-rule:nonzero;"/>
                            <path d="M44.819,66.281C44.819,68.06 46.259,69.5 48.04,69.5C49.819,69.5 51.259,68.06 51.259,66.281C51.259,65.97 51.219,65.681 51.139,65.4L47.969,63.07C46.219,63.11 44.819,64.53 44.819,66.281Z" style="fill:rgb(255,252,59);fill-rule:nonzero;"/>
                        </g>
                    </g>
                    <path d="M50.955,104.75L62.955,128.75L74.954,104.75L50.955,104.75Z" style="fill:rgb(97,98,98);fill-rule:nonzero;"/>
                    <path d="M62.999,129L62.999,128.66L71.454,111.75L71.625,111.75L62.999,129Z" style="fill:rgb(235,235,236);fill-rule:nonzero;"/>
                    <path d="M62.999,128.66L62.999,111.75L71.454,111.75L62.999,128.66Z" style="fill:rgb(131,132,133);fill-rule:nonzero;"/>
                    <path d="M20.409,104.75L32.409,128.75L44.409,104.75L20.409,104.75Z" style="fill:rgb(97,98,98);fill-rule:nonzero;"/>
                    <path d="M32,129L32,127.931L32.267,128.465L32,129Z" style="fill:rgb(235,235,236);fill-rule:nonzero;"/>
                    <path d="M32.267,128.465L32,127.931L32,111.75L40.625,111.75L32.267,128.465Z" style="fill:rgb(131,132,133);fill-rule:nonzero;"/>
                    <path d="M20.999,45.25L0,34.75L20.999,24.25L20.999,45.25Z" style="fill:rgb(97,98,98);fill-rule:nonzero;"/>
                    <path d="M16,34.808L0,34.75L16,26.75L16,34.808Z" style="fill:rgb(131,132,133);fill-rule:nonzero;"/>
                    <path d="M20.999,75.25L0,64.75L20.999,54.25L20.999,75.25Z" style="fill:rgb(97,98,98);fill-rule:nonzero;"/>
                    <path d="M16,64.808L0,64.75L16,56.751L16,64.808Z" style="fill:rgb(131,132,133);fill-rule:nonzero;"/>
                    <path d="M20.999,103.25L0,92.75L20.999,82.25L20.999,103.25Z" style="fill:rgb(97,98,98);fill-rule:nonzero;"/>
                    <path d="M16,92.808L0,92.75L16,84.75L16,92.808Z" style="fill:rgb(131,132,133);fill-rule:nonzero;"/>
                    <path d="M82,20.75L96,28.75L110,20.75L96,0.75L82,20.75Z" style="fill:rgb(97,98,98);fill-rule:nonzero;"/>
                    <path d="M96,28.75L96,0.75L110,20.75L109,21.322L96,28.75Z" style="fill:rgb(128,130,130);fill-rule:nonzero;"/>
                    <path d="M50,20.75L64,28.75L78,20.75L64,0.75L50,20.75Z" style="fill:rgb(97,98,98);fill-rule:nonzero;"/>
                    <path d="M64,28.75L64,0.75L78,20.75L64,28.75Z" style="fill:rgb(128,130,130);fill-rule:nonzero;"/>
                    <path d="M18,20.75L32,28.75L46,20.75L32,0.75L18,20.75Z" style="fill:rgb(97,98,98);fill-rule:nonzero;"/>
                    <path d="M32,28.75L32,0.75L46,20.75L32,28.75Z" style="fill:rgb(128,130,130);fill-rule:nonzero;"/>
                </g>
            </g>
        </g>
    </g>
</svg>
