<?xml version="1.0" encoding="UTF-8" standalone="no"?>
<!DOCTYPE svg PUBLIC "-//W3C//DTD SVG 1.1//EN" "http://www.w3.org/Graphics/SVG/1.1/DTD/svg11.dtd">
<svg width="100%" height="100%" viewBox="0 0 1213 1021" version="1.1" xmlns="http://www.w3.org/2000/svg" xmlns:xlink="http://www.w3.org/1999/xlink" xml:space="preserve" xmlns:serif="http://www.serif.com/" style="fill-rule:evenodd;clip-rule:evenodd;stroke-linejoin:round;stroke-miterlimit:1.41421;">
    <g transform="matrix(1,0,0,1,-0.000367794,-0.00303325)">
        <g transform="matrix(1,0,0,1,-935.127,-14.609)">
            <path d="M2147.2,1034.93L935.125,1034.93L935.125,14.612L2147.2,14.612L2147.2,1034.93ZM1401.01,940.257L982.643,940.257L982.643,985.806L1401.01,985.806L1401.01,940.257ZM1246.67,481.927L1141.5,481.927L975.213,891.493L1113.24,891.493L1127.7,854.651L1260.47,854.651L1274.93,891.493L1412.95,891.493L1246.67,481.927ZM1538.49,481.927L1422.81,481.927L1422.81,891.493L1562.81,891.493L1562.81,744.123L1652.86,866.932L1742.25,744.123L1742.25,891.493L1882.25,891.493L1882.25,481.927L1766.57,481.927L1652.86,639.122L1538.49,481.927ZM1333.43,842.37L1315.02,842.37L1302.53,811.668L1085.63,811.668L1073.15,842.37L1054.74,842.37L1181.6,531.051L1206.57,531.051L1333.43,842.37ZM1505.63,842.37L1488.54,842.37L1488.54,531.051L1505.63,531.051L1652.86,733.07L1799.43,531.051L1816.52,531.051L1816.52,842.37L1799.43,842.37L1799.43,560.525L1652.86,760.702L1505.63,560.525L1505.63,842.37ZM1296.62,796.931L1194.08,545.788L1091.55,796.931L1296.62,796.931ZM1223.66,764.387L1194.08,692.544L1164.51,764.387L1223.66,764.387ZM2103.11,64.097L1878.24,64.097L1878.24,473.663L2107.11,473.663L2107.11,366.205L2000.12,366.205L2000.12,318.924L2101.39,318.924L2101.39,216.993L2000.12,216.993L2000.12,171.554L2103.11,171.554L2103.11,64.097ZM1676.26,64.097L1544.66,64.097L1544.66,473.663L1666.53,473.663L1666.53,369.89L1723.75,473.663L1866.8,473.663L1795.27,338.573C1804.81,331.205 1813.39,322.199 1821.02,311.556C1827.51,302.14 1833.42,290.269 1838.76,275.941C1844.1,261.614 1846.77,244.216 1846.77,223.748C1846.77,197.958 1842.48,175.136 1833.9,155.282C1825.31,135.428 1813.39,118.746 1798.13,105.237C1782.88,91.729 1764.85,81.495 1744.06,74.535C1723.27,67.576 1700.67,64.097 1676.26,64.097ZM1287.17,64.097L1181.32,64.097L1181.32,473.663L1287.17,473.663C1323.03,473.663 1354.98,469.262 1383.02,460.461C1411.05,451.66 1434.7,438.662 1453.97,421.469C1473.23,404.276 1487.92,382.887 1498.02,357.302C1508.13,331.717 1513.19,302.14 1513.19,268.573C1513.19,235.005 1508.13,205.429 1498.02,179.844C1487.92,154.258 1473.23,132.869 1453.97,115.676C1434.7,98.483 1411.05,85.588 1383.02,76.992C1354.98,68.395 1323.03,64.097 1287.17,64.097ZM2064.77,127.957L1950.34,127.957L1950.34,260.59L2059.05,260.59L2059.05,275.327L1950.34,275.327L1950.34,409.802L2064.77,409.802L2064.77,424.539L1935.46,424.539L1935.46,113.22L2064.77,113.22L2064.77,127.957ZM1616.75,424.539L1601.88,424.539L1601.88,113.22L1663.67,113.22C1681.6,113.22 1698.19,115.574 1713.45,120.281C1728.71,124.989 1741.97,131.948 1753.22,141.159C1764.47,150.37 1773.34,161.729 1779.82,175.238C1786.31,188.747 1789.55,204.508 1789.55,222.52C1789.55,248.309 1783.45,269.289 1771.24,285.459C1759.04,301.629 1742.63,313.602 1722.03,321.38L1779.25,424.539L1761.51,424.539L1707.16,326.293C1693.04,329.567 1678.55,331.205 1663.67,331.205L1616.75,331.205L1616.75,424.539ZM1287.17,424.539L1238.54,424.539L1238.54,113.22L1287.17,113.22C1342.87,113.22 1384.92,126.729 1413.34,153.747C1441.76,180.765 1455.97,219.04 1455.97,268.573C1455.97,318.105 1441.76,356.483 1413.34,383.706C1384.92,410.928 1342.87,424.539 1287.17,424.539ZM1287.17,127.957L1253.42,127.957L1253.42,409.802L1287.17,409.802C1335.62,409.802 1373.29,397.931 1400.18,374.188C1427.07,350.445 1440.52,315.24 1440.52,268.573C1440.52,221.905 1427.07,186.803 1400.18,163.264C1373.29,139.726 1335.62,127.957 1287.17,127.957ZM1303.2,356.995C1331.81,356.995 1353.93,349.729 1369.57,335.196C1385.21,320.664 1393.03,298.456 1393.03,268.573C1393.03,238.689 1385.21,216.584 1369.57,202.256C1353.93,187.928 1331.81,180.765 1303.2,180.765L1303.2,356.995ZM1663.67,127.957L1616.75,127.957L1616.75,316.468L1663.67,316.468C1698.38,316.468 1725.56,308.383 1745.21,292.213C1764.85,276.044 1774.67,252.812 1774.67,222.52C1774.67,192.227 1764.85,168.893 1745.21,152.519C1725.56,136.144 1698.38,127.957 1663.67,127.957ZM1672.83,265.502L1666.53,265.502L1666.53,174.624L1672.83,174.624C1687.32,174.624 1699.62,178.104 1709.73,185.063C1719.84,192.022 1724.89,203.689 1724.89,220.063C1724.89,236.438 1719.84,248.105 1709.73,255.064C1699.62,262.023 1687.32,265.502 1672.83,265.502Z" style="fill:url(#_Linear1);"/>
        </g>
    </g>
    <defs>
        <linearGradient id="_Linear1" x1="0" y1="0" x2="1" y2="0" gradientUnits="userSpaceOnUse" gradientTransform="matrix(1212.08,0,0,1020.32,935.134,524.773)"><stop offset="0" style="stop-color:rgb(24,55,87);stop-opacity:1"/><stop offset="0.1" style="stop-color:rgb(19,68,112);stop-opacity:1"/><stop offset="0.2" style="stop-color:rgb(32,96,130);stop-opacity:1"/><stop offset="0.3" style="stop-color:rgb(50,124,155);stop-opacity:1"/><stop offset="0.41" style="stop-color:rgb(120,170,183);stop-opacity:1"/><stop offset="0.5" style="stop-color:rgb(231,230,225);stop-opacity:1"/><stop offset="0.6" style="stop-color:rgb(120,170,183);stop-opacity:1"/><stop offset="0.7" style="stop-color:rgb(66,135,160);stop-opacity:1"/><stop offset="0.8" style="stop-color:rgb(33,94,129);stop-opacity:1"/><stop offset="0.9" style="stop-color:rgb(21,70,114);stop-opacity:1"/><stop offset="1" style="stop-color:rgb(23,55,87);stop-opacity:1"/></linearGradient>
    </defs>
</svg>
