<?xml version="1.0" encoding="UTF-8" standalone="no"?>
<!DOCTYPE svg PUBLIC "-//W3C//DTD SVG 1.1//EN" "http://www.w3.org/Graphics/SVG/1.1/DTD/svg11.dtd">
<svg width="100%" height="100%" viewBox="0 0 462 335" version="1.1" xmlns="http://www.w3.org/2000/svg" xmlns:xlink="http://www.w3.org/1999/xlink" xml:space="preserve" xmlns:serif="http://www.serif.com/" style="fill-rule:evenodd;clip-rule:evenodd;stroke-linejoin:round;stroke-miterlimit:1.41421;">
    <g transform="matrix(1,0,0,1,-134.712,-704.019)">
        <g transform="matrix(5.43216,0.0201762,-0.013893,3.74049,-272.543,92.7166)">
            <g transform="matrix(1,1.38778e-17,-4.33681e-19,1,-9.20854,110.746)">
                <path d="M136.24,97.416C136.373,97.447 136.46,97.554 136.483,97.77C136.483,106.384 136.539,114.998 136.483,123.611C136.442,125.759 134.92,127.297 133.663,127.815C133.123,128.037 132.562,128.14 132.001,128.144L129.303,128.144L129.303,136.551C129.732,140.264 125.223,142.942 122.315,140.358C121.438,139.58 120.714,138.175 120.872,136.586L120.877,128.134L116.003,128.134L116.003,136.541C116.432,140.254 111.923,142.932 109.015,140.348C108.138,139.57 107.414,138.165 107.572,136.576L107.577,128.124C105.606,128.124 103.614,128.467 101.963,126.965C101.149,126.225 100.466,124.996 100.457,123.541L100.457,97.77C100.457,97.77 100.494,97.464 100.7,97.416C112.547,97.416 124.393,97.416 136.24,97.416ZM100.943,123.53C100.943,123.691 100.953,123.852 100.974,124.011C101.24,126.078 102.831,127.051 104.067,127.323C104.356,127.386 104.648,127.417 104.94,127.416L107.82,127.416C107.953,127.447 108.04,127.554 108.063,127.77L108.063,136.57C108.04,136.982 108.026,137.4 108.114,137.802C108.793,140.886 112.493,141.67 114.538,139.526C115.159,138.874 115.655,137.801 115.52,136.628L115.517,127.78C115.517,127.78 115.554,127.474 115.76,127.426L121.12,127.426C121.253,127.457 121.34,127.564 121.363,127.78L121.363,136.58C121.34,136.992 121.326,137.41 121.414,137.812C122.093,140.896 125.793,141.68 127.838,139.536C128.459,138.884 128.955,137.811 128.82,136.638L128.817,127.79C128.817,127.79 128.854,127.484 129.06,127.436C131.209,127.436 133.397,127.859 134.986,126.113C135.54,125.504 135.99,124.596 135.997,123.548L135.997,98.124L100.943,98.124C100.943,106.592 100.943,115.061 100.943,123.53ZM141.784,96.138C143.856,96.178 146.26,97.847 145.948,100.974L145.943,117.571C146.372,121.283 141.864,123.962 138.955,121.378C138.078,120.6 137.354,119.195 137.512,117.606L137.517,101.009C137.269,98.864 138.818,97.037 140.064,96.488C140.619,96.244 141.2,96.134 141.784,96.138ZM95.16,96.647C97.079,96.634 99.318,98.07 99.373,100.942C99.408,106.429 99.367,111.893 99.384,117.361C99.39,118.013 99.415,118.667 99.247,119.282C98.358,122.533 94.74,123.441 92.423,121.432C91.528,120.655 90.782,119.234 90.942,117.626L90.947,117.591C90.947,112.041 90.911,106.491 90.947,100.942C90.992,98.609 92.81,97.128 94.152,96.779C94.485,96.692 94.823,96.644 95.16,96.647ZM141.681,96.845C141.196,96.854 140.712,96.949 140.248,97.147C140.081,97.218 139.917,97.302 139.757,97.4C139.629,97.477 139.504,97.564 139.383,97.66C139.29,97.733 139.198,97.812 139.11,97.896C138.429,98.546 137.856,99.671 138,100.922L138,117.658C137.618,120.965 141.939,123.217 144.478,120.556C145.099,119.904 145.595,118.831 145.46,117.658L145.46,100.922C145.667,99.122 144.304,97.642 143.297,97.184C142.776,96.947 142.23,96.841 141.681,96.845ZM95.141,97.354C94.656,97.363 94.172,97.458 93.708,97.656C93.555,97.721 93.404,97.797 93.256,97.885C93.127,97.961 93.001,98.046 92.879,98.141C92.784,98.213 92.692,98.291 92.602,98.375C91.983,98.952 91.441,99.88 91.433,101.002L91.433,117.62C91.41,118.032 91.396,118.45 91.484,118.852C92.164,121.943 95.747,122.739 97.845,120.641C98.541,119.944 98.91,118.835 98.897,117.368C98.88,111.916 98.922,106.453 98.886,100.955C98.846,98.859 97.213,97.769 96.082,97.475C95.771,97.394 95.456,97.352 95.141,97.354ZM169.433,72.312C164.073,75.364 158.804,78.69 153.478,81.76C152.802,82.145 152.622,82.502 152.339,82.825C147.832,87.927 141.827,91.489 136.461,87.61C133.28,85.31 131.042,81.035 129.394,76.631L129.34,76.486C129.284,76.542 129.233,76.612 129.191,76.69L126.555,81.499C126.806,81.63 127.055,81.764 127.305,81.898C129.213,82.933 131.141,83.982 132.951,85.33C135.062,86.945 135.864,91.376 134.415,94.29C133.648,95.831 132.375,96.786 131.053,96.813C121.64,96.856 112.238,96.76 102.835,96.726C101.573,96.705 100.372,95.641 99.783,94.011C97.474,87.325 94.318,81.433 91.419,75.235C89.061,70.175 86.52,65.151 85.072,59.477C84.535,57.372 84.191,54.596 85.621,53.819C85.686,53.784 85.711,53.689 85.909,53.838L105.671,75.279L106.651,76.297C106.974,75.671 107.719,75.66 108.05,76.259L110.748,81.173C110.891,81.112 111.035,81.053 111.178,80.995C114.508,79.675 117.981,79.306 121.396,79.824C121.389,79.541 121.383,79.258 121.377,78.974C121.27,72.531 121.622,65.885 123.722,60.432C124.909,57.347 126.758,54.822 129.037,53.462C132.851,51.188 137.177,51.94 141.021,53.271C149.822,56.319 157.9,63.065 165.946,69.128C167.123,70.009 168.298,70.904 169.533,71.601C169.533,71.601 169.706,71.638 169.68,72.019C169.68,72.019 169.401,72.318 169.511,72.27C169.472,72.29 169.472,72.291 169.433,72.312ZM85.722,54.522C85.027,54.976 85.028,56.414 85.139,57.277C85.656,61.318 87.423,64.981 88.98,68.565C91.904,75.297 95.198,81.695 98.135,88.401C98.887,90.117 99.593,91.881 100.217,93.689C100.396,94.185 100.486,94.342 100.665,94.625C101.685,96.245 103.491,96.021 105.18,96.027C111.233,96.048 117.277,96.065 123.317,96.083C125.908,96.091 128.499,96.158 131.09,96.105C133.28,96.026 135.141,92.728 134.624,89.509C134.22,86.992 132.432,85.703 130.539,84.531C128.858,83.49 127.151,82.539 125.425,81.67C125.425,81.67 123.198,80.803 121.252,80.513C117.801,80 114.282,80.426 110.961,81.819L110.658,81.934C110.612,81.923 110.564,81.928 110.47,81.8C109.532,80.092 108.685,78.27 107.656,76.677C107.471,76.411 106.941,76.575 107.056,76.799C107.056,76.799 107.159,76.913 107.081,77.158C107.023,77.341 106.898,77.427 106.714,77.293C99.718,69.703 92.722,62.111 85.725,54.521C85.724,54.52 85.723,54.522 85.722,54.522ZM126.623,86.567C127.56,86.603 128.673,87.481 128.248,88.965C128.002,89.821 127.258,90.265 126.582,90.274L126.58,89.92C126.58,89.92 126.674,90.283 126.452,90.269C125.577,90.19 124.547,89.281 124.9,87.922C125.154,86.943 125.975,86.559 126.623,86.567ZM110.343,86.567C111.289,86.603 112.423,87.516 111.954,89.011C111.901,89.179 111.827,89.333 111.74,89.467C111.383,90.022 110.829,90.267 110.302,90.274L110.3,89.92C110.3,89.92 110.394,90.283 110.172,90.269C109.297,90.19 108.267,89.281 108.62,87.922C108.874,86.943 109.695,86.559 110.343,86.567ZM126.546,87.274C125.998,87.295 125.361,87.668 125.325,88.37C125.259,89.643 127.485,90.221 127.816,88.619C127.975,87.85 127.251,87.265 126.546,87.274ZM110.266,87.274C109.718,87.295 109.081,87.668 109.045,88.37C108.975,89.719 111.649,90.19 111.555,88.37C111.519,87.667 110.874,87.266 110.266,87.274ZM134.418,52.745C130.903,52.797 127.345,54.467 125.101,58.674C122.541,63.473 121.955,69.84 121.859,75.697C121.836,77.095 121.85,78.493 121.885,79.89C121.885,79.89 123.314,80.178 124.487,80.561C125.007,80.731 125.523,80.925 126.036,81.14L126.112,81.173C127.02,79.516 127.9,77.826 128.836,76.203C128.858,76.167 128.88,76.132 128.903,76.099C129.149,75.755 129.393,75.172 129.985,76.724C132.145,82.34 135.315,87.53 139.927,88.43C144.466,89.315 149.075,85.658 152.739,81.456C152.857,81.326 152.805,81.308 152.942,81.301C154.202,80.671 155.451,79.843 156.716,79.094C160.699,76.731 164.692,74.335 168.658,72.001L168.79,71.924C165.068,69.578 161.551,66.515 157.889,63.813C152.27,59.669 146.5,55.773 140.397,53.787C138.436,53.149 136.428,52.734 134.418,52.745ZM152.774,81.836C152.774,81.836 152.771,81.826 152.774,81.836ZM169.375,72.269C169.375,72.269 169.37,72.258 169.375,72.269Z" style="fill:rgb(21,128,202);fill-rule:nonzero;"/>
            </g>
        </g>
    </g>
</svg>
